<svg width="60" height="59" viewBox="0 0 60 59" fill="none" xmlns="http://www.w3.org/2000/svg">
<g clip-path="url(#clip0_1_605)">
<path d="M5.74665 3.49736L7.55642 1.61708C7.85184 1.28138 8.10448 0.910329 8.30853 0.512418L8.56706 0.0893555L8.144 0.371397C7.77979 0.592233 7.44089 0.852324 7.13335 1.14701L5.4176 3.02729L5.65264 3.16831C5.69986 3.27281 5.73154 3.38367 5.74665 3.49736Z" fill="#74D7EA"/>
<path d="M3.46707 5.00146L1.72781 6.81123C1.42761 7.13454 1.17443 7.49849 0.975701 7.89239L0.717163 8.33895L1.14023 8.05691C1.50953 7.83433 1.84913 7.56582 2.15087 7.2578L3.91363 5.42453C3.79808 5.37622 3.69398 5.30415 3.60809 5.213C3.5531 5.14815 3.50578 5.07717 3.46707 5.00146Z" fill="#74D7EA"/>
<path d="M1.72781 1.59358L3.46707 3.42684C3.49983 3.33363 3.54745 3.24632 3.60809 3.16831L3.89013 2.98028L2.15087 1.14701C1.85606 0.837837 1.51514 0.576197 1.14023 0.371397L0.717163 0.0893555L0.975701 0.535921C1.18223 0.917889 1.43482 1.27309 1.72781 1.59358Z" fill="#74D7EA"/>
<path d="M7.55642 6.81149L5.74665 4.90771L5.55862 5.21326L5.4176 5.37778L7.22737 7.25806C7.52912 7.56608 7.86871 7.8346 8.23802 8.05718L8.66108 8.33922L8.40254 7.89265C8.16802 7.49748 7.88365 7.13411 7.55642 6.81149Z" fill="#74D7EA"/>
<path d="M14.2312 3.49736L16.041 1.61708C16.3364 1.28138 16.5891 0.910329 16.7931 0.512418L17.1692 0.0893555L16.6286 0.371397C16.2644 0.592233 15.9255 0.852324 15.6179 1.14701L13.8317 3.02729L14.0432 3.16831C14.1233 3.26709 14.1868 3.37822 14.2312 3.49736Z" fill="#74D7EA"/>
<path d="M11.9522 5.00146L10.1189 6.81123C9.81873 7.13454 9.56554 7.49849 9.36681 7.89239L9.10828 8.33896L9.53134 8.05691C9.90065 7.83434 10.2402 7.56582 10.542 7.2578L12.4693 5.42453C12.3537 5.37622 12.2496 5.30415 12.1637 5.213C12.0839 5.1524 12.0128 5.08124 11.9522 5.00146Z" fill="#74D7EA"/>
<path d="M10.1187 1.59358L11.8579 3.42684C11.8907 3.33363 11.9383 3.24632 11.9989 3.16831L12.469 2.98028L10.6357 1.14701C10.3409 0.837837 10 0.576197 9.62509 0.371397L9.20203 0.0893555L9.46056 0.535921C9.63769 0.913064 9.85857 1.26806 10.1187 1.59358Z" fill="#74D7EA"/>
<path d="M16.0415 6.81149L14.2318 4.90771L14.0438 5.21326L13.8087 5.37778L15.6185 7.25806C15.9202 7.56608 16.2598 7.8346 16.6291 8.05718L17.1697 8.33922L16.9112 7.89265C16.6694 7.4961 16.377 7.13267 16.0415 6.81149Z" fill="#74D7EA"/>
<path d="M22.7167 3.49736L24.5264 1.61708C24.8219 1.28138 25.0745 0.910329 25.2786 0.512418L25.5371 0.0893555L25.114 0.371397C24.7908 0.598979 24.4915 0.858855 24.2209 1.14701L22.4111 3.02729L22.6462 3.16831C22.6853 3.27404 22.7091 3.38486 22.7167 3.49736Z" fill="#74D7EA"/>
<path d="M20.4367 5.00146L18.6974 6.81123C18.3972 7.13454 18.144 7.49849 17.9453 7.89239L17.6868 8.33896L18.1098 8.05691C18.4791 7.83434 18.8187 7.56582 19.1205 7.2578L20.8832 5.42453C20.7677 5.37622 20.6636 5.30415 20.5777 5.213C20.5227 5.14815 20.4754 5.07717 20.4367 5.00146Z" fill="#74D7EA"/>
<path d="M18.6974 1.59358L20.4367 3.42684C20.4694 3.33363 20.5171 3.24632 20.5777 3.16831L20.8597 2.98028L19.1205 1.14701C18.8257 0.837837 18.4847 0.576197 18.1098 0.371397L17.6868 0.0893555L17.9453 0.535921C18.1518 0.917889 18.4044 1.27309 18.6974 1.59358Z" fill="#74D7EA"/>
<path d="M24.5264 6.81149L22.7166 4.90771L22.5286 5.21326L22.2936 5.37778L24.1033 7.25806C24.4051 7.56608 24.7447 7.8346 25.114 8.05718L25.5371 8.33922L25.2785 7.89265C25.0732 7.50271 24.8206 7.13958 24.5264 6.81149Z" fill="#74D7EA"/>
<path d="M31.2713 3.49736L33.0811 1.61708C33.3765 1.28138 33.6292 0.910329 33.8332 0.512418L34.0212 0.0893555L33.6217 0.371397C33.2575 0.592233 32.9186 0.852324 32.611 1.14701L30.8013 3.02729L31.0363 3.16831C31.1331 3.26359 31.2126 3.37492 31.2713 3.49736Z" fill="#74D7EA"/>
<path d="M28.9215 5.00146L27.1823 6.81123C26.8821 7.13454 26.6289 7.49849 26.4302 7.89239L26.1716 8.33896L26.5712 8.05691C26.9405 7.83434 27.2801 7.56582 27.5818 7.2578L29.3446 5.42453C29.229 5.37622 29.1249 5.30415 29.0391 5.213C28.9923 5.147 28.9528 5.07607 28.9215 5.00146Z" fill="#74D7EA"/>
<path d="M27.1823 1.59358L28.9215 3.42684C28.9543 3.33363 29.0019 3.24632 29.0626 3.16831L29.3446 2.98028L27.6053 1.14701C27.3034 0.835875 26.9544 0.574142 26.5712 0.371397L26.1716 0.0893555L26.4302 0.535921C26.6367 0.917889 26.8893 1.27309 27.1823 1.59358Z" fill="#74D7EA"/>
<path d="M33.0105 6.81149L31.2712 4.90771L31.0832 5.21326L30.8481 5.37778L32.6579 7.25806C32.9597 7.56608 33.2993 7.8346 33.6686 8.05718L34.0916 8.33922L33.8331 7.89265C33.6059 7.49883 33.3294 7.13552 33.0105 6.81149Z" fill="#74D7EA"/>
<path d="M39.6862 3.49736L41.496 1.61708C41.7914 1.28138 42.0441 0.910329 42.2481 0.512418L42.5067 0.0893555L42.0836 0.371397C41.7194 0.592233 41.3805 0.852324 41.073 1.14701L39.2632 3.02729L39.4982 3.16831C39.5783 3.26709 39.6418 3.37822 39.6862 3.49736Z" fill="#74D7EA"/>
<path d="M37.4063 5.00146L35.667 6.81123C35.3668 7.13454 35.1136 7.49849 34.9149 7.89239L34.6564 8.33896L35.0794 8.05691C35.4487 7.83434 35.7883 7.56582 36.0901 7.2578L37.8528 5.42453C37.7373 5.37622 37.6332 5.30415 37.5473 5.213C37.4923 5.14815 37.445 5.07717 37.4063 5.00146Z" fill="#74D7EA"/>
<path d="M35.667 1.59358L37.4063 3.42684C37.439 3.33363 37.4867 3.24632 37.5473 3.16831L37.8293 2.98028L36.0901 1.14701C35.7953 0.837837 35.4543 0.576197 35.0794 0.371397L34.6564 0.0893555L34.9149 0.535921C35.1214 0.917889 35.374 1.27309 35.667 1.59358Z" fill="#74D7EA"/>
<path d="M41.496 6.81149L39.6862 4.90771L39.4982 5.21326L39.2632 5.37778L41.073 7.25806C41.3747 7.56608 41.7143 7.8346 42.0836 8.05718L42.5067 8.33922L42.2481 7.89265C42.0428 7.50271 41.7902 7.13958 41.496 6.81149Z" fill="#74D7EA"/>
<path d="M48.171 3.49736L50.0748 1.61708C50.3702 1.28138 50.6228 0.910329 50.8269 0.512418L50.9914 0.0893555L50.5683 0.371397C50.2041 0.592233 49.8652 0.852324 49.5577 1.14701L47.7479 3.02729L47.983 3.16831C48.063 3.26709 48.1265 3.37822 48.171 3.49736Z" fill="#74D7EA"/>
<path d="M45.8911 5.00146L44.1519 6.81123C43.8517 7.13454 43.5985 7.49849 43.3998 7.89239L43.1412 8.33896L43.5643 8.05691C43.9336 7.83434 44.2732 7.56582 44.5749 7.2578L46.3377 5.42453C46.2222 5.37622 46.1181 5.30415 46.0322 5.213C45.9772 5.14815 45.9299 5.07717 45.8911 5.00146Z" fill="#74D7EA"/>
<path d="M44.1519 1.59358C44.6455 2.11065 45.2565 2.74524 45.8676 3.42684C45.9171 3.33734 45.972 3.25099 46.0322 3.16831L46.3142 2.98028L44.5749 1.14701C44.2801 0.837837 43.9392 0.576197 43.5643 0.371397L43.1412 0.0893555L43.3998 0.535921C43.6063 0.917889 43.8589 1.27309 44.1519 1.59358Z" fill="#74D7EA"/>
<path d="M50.0745 6.81149L48.2647 4.90771L48.0767 5.21326L47.8417 5.37778L49.6514 7.25806C49.9532 7.56608 50.2928 7.8346 50.6621 8.05718L51.0852 8.33922L50.8266 7.89265C50.6213 7.50271 50.3687 7.13958 50.0745 6.81149Z" fill="#74D7EA"/>
<path d="M56.6558 3.49736L58.4656 1.61708C58.761 1.28138 59.0137 0.910329 59.2177 0.512418L59.4763 0.0893555L59.0532 0.371397C58.6849 0.596937 58.3387 0.856619 58.019 1.14701L56.2328 3.02729L56.4678 3.16831C56.5392 3.27275 56.6021 3.38279 56.6558 3.49736Z" fill="#74D7EA"/>
<path d="M54.3759 5.00146L52.6366 6.81123C52.3364 7.13454 52.0832 7.49849 51.8845 7.89239L51.626 8.33896C51.7597 8.23447 51.9011 8.14019 52.049 8.05691C52.4183 7.83434 52.7579 7.56582 53.0597 7.2578L54.7754 5.42453C54.6599 5.37622 54.5558 5.30415 54.4699 5.213C54.4312 5.14597 54.3997 5.07507 54.3759 5.00146Z" fill="#74D7EA"/>
<path d="M52.6366 1.59358L54.3759 3.42684C54.4086 3.33363 54.4563 3.24632 54.5169 3.16831L54.7754 2.98028L53.0597 1.14701C52.7649 0.837837 52.424 0.576197 52.049 0.371397L51.626 0.0893555L51.8845 0.535921C52.091 0.917889 52.3436 1.27309 52.6366 1.59358Z" fill="#74D7EA"/>
<path d="M58.4656 6.81149L56.6558 4.90771L56.4678 5.21326L56.2328 5.37778L58.0425 7.25806C58.3443 7.56608 58.6839 7.8346 59.0532 8.05718C59.2011 8.14045 59.3425 8.23473 59.4763 8.33922L59.2177 7.89265C59.0124 7.50271 58.7598 7.13958 58.4656 6.81149Z" fill="#74D7EA"/>
<path d="M5.74665 11.8411L7.55642 9.96083C7.85062 9.63274 8.10323 9.26961 8.30853 8.87967L8.56706 8.43311L8.144 8.71515C7.77603 8.93043 7.4365 9.191 7.13335 9.49076L5.4176 11.4415L5.65264 11.6061C5.69591 11.6791 5.72763 11.7584 5.74665 11.8411Z" fill="#74D7EA"/>
<path d="M3.46707 13.416L1.72781 15.2258C1.42761 15.5491 1.17443 15.913 0.975701 16.3069L0.717163 16.7535L1.14023 16.542C1.51492 16.3273 1.85554 16.0579 2.15087 15.7429L3.91363 13.9331C3.8029 13.8764 3.70016 13.8052 3.60809 13.7216C3.54748 13.6266 3.50004 13.5238 3.46707 13.416Z" fill="#74D7EA"/>
<path d="M1.72781 10.0311L3.46707 11.8409C3.49975 11.7548 3.5475 11.6752 3.60809 11.6059L3.89013 11.3943L2.15087 9.49056C1.8454 9.21344 1.50577 8.97649 1.14023 8.78546L0.717163 8.50342L0.975701 8.94998C1.17443 9.34388 1.42761 9.70784 1.72781 10.0311Z" fill="#74D7EA"/>
<path d="M7.5568 15.2256L5.74704 13.3218C5.74704 13.3218 5.62952 13.5568 5.55901 13.6508C5.48609 13.7063 5.40727 13.7536 5.32397 13.7918L7.13374 15.6956C7.43755 16.015 7.7766 16.2988 8.14439 16.5418L8.56745 16.8238L8.30891 16.3067C8.09789 15.9203 7.84572 15.5578 7.5568 15.2256Z" fill="#74D7EA"/>
<path d="M14.2312 11.8409L16.041 9.96063C16.3352 9.63254 16.5878 9.26941 16.7931 8.87947L17.1692 8.50342L16.7461 8.78546C16.3409 8.97023 15.9616 9.20728 15.6179 9.49056L13.8317 11.3473L14.0432 11.5119C14.1306 11.6054 14.195 11.7181 14.2312 11.8409Z" fill="#74D7EA"/>
<path d="M11.9522 13.416L10.1189 15.2258C9.81873 15.5491 9.56554 15.913 9.36681 16.3069L9.10828 16.7535L9.62535 16.542C10 16.3273 10.3407 16.0579 10.636 15.7429L12.4693 13.8626C12.3585 13.8059 12.2558 13.7347 12.1637 13.651C12.0835 13.582 12.0124 13.503 11.9522 13.416Z" fill="#74D7EA"/>
<path d="M10.1187 10.0313L11.9519 11.8411C11.9846 11.755 12.0324 11.6754 12.093 11.6061L12.469 11.3945L10.6357 9.49076C10.3345 9.18884 9.99466 8.92804 9.62509 8.71515L9.20203 8.43311L9.46056 8.87967C9.62439 9.29274 9.84596 9.68049 10.1187 10.0313Z" fill="#74D7EA"/>
<path d="M16.0415 15.2256L14.2318 13.3218C14.2318 13.3218 14.2318 13.5568 14.0438 13.6508C13.9708 13.7063 13.892 13.7536 13.8087 13.7918L15.6185 15.6956C15.9223 16.015 16.2613 16.2988 16.6291 16.5417L17.1697 16.7533L16.7937 16.3067C16.5826 15.9203 16.3305 15.5578 16.0415 15.2256Z" fill="#74D7EA"/>
<path d="M22.7167 11.8411L24.5264 9.96083C24.8206 9.63274 25.0733 9.26961 25.2786 8.87967L25.5371 8.43311L25.114 8.71515C24.7872 8.93817 24.4875 9.19846 24.2209 9.49076L22.4111 11.3475L22.6462 11.5121C22.6921 11.6157 22.7161 11.7277 22.7167 11.8411Z" fill="#74D7EA"/>
<path d="M20.4367 13.416L18.6974 15.2258C18.3972 15.5491 18.144 15.913 17.9453 16.3069L17.6868 16.7535L18.1098 16.542C18.4845 16.3273 18.8251 16.0579 19.1205 15.7429L20.8832 13.9331C20.7725 13.8764 20.6698 13.8052 20.5777 13.7216C20.5171 13.6266 20.4696 13.5238 20.4367 13.416Z" fill="#74D7EA"/>
<path d="M18.6974 10.0311L20.4367 11.8409C20.4694 11.7548 20.5171 11.6752 20.5777 11.6059L20.8597 11.3943L19.1205 9.49056C18.815 9.21344 18.4754 8.97649 18.1098 8.78546L17.6868 8.50342L17.9453 8.94998C18.144 9.34388 18.3972 9.70784 18.6974 10.0311Z" fill="#74D7EA"/>
<path d="M24.5264 15.2256L22.7166 13.3218C22.7166 13.3218 22.7166 13.5568 22.5286 13.6508C22.4557 13.7063 22.3769 13.7536 22.2936 13.7918L24.1033 15.6956C24.4109 15.9903 24.7498 16.2504 25.114 16.4712L25.5371 16.7533L25.2785 16.3067C25.0675 15.9203 24.8153 15.5578 24.5264 15.2256Z" fill="#74D7EA"/>
<path d="M31.2713 11.8411L33.0811 9.96083C33.3753 9.63274 33.6279 9.26961 33.8332 8.87967L34.0918 8.43311L33.6217 8.78566C33.2524 9.00824 32.9128 9.27675 32.611 9.58477L30.8013 11.4415L31.0363 11.6061C31.1298 11.6676 31.2098 11.7476 31.2713 11.8411Z" fill="#74D7EA"/>
<path d="M28.9215 13.416L27.1823 15.2258C26.8821 15.5491 26.6289 15.913 26.4302 16.3069L26.1716 16.7535L26.5712 16.542C26.9459 16.3273 27.2865 16.0579 27.5818 15.7429L29.3446 13.9331C29.2339 13.8764 29.1311 13.8052 29.0391 13.7216C28.9866 13.6253 28.9471 13.5226 28.9215 13.416Z" fill="#74D7EA"/>
<path d="M27.1819 10.0311L28.9211 11.8409C28.9538 11.7548 29.0016 11.6752 29.0621 11.6059C29.1504 11.528 29.2447 11.4572 29.3442 11.3943L27.6049 9.49056C27.2922 9.21177 26.9445 8.97476 26.5708 8.78546L26.1477 8.50342L26.4062 8.94998C26.6122 9.34532 26.8734 9.70936 27.1819 10.0311Z" fill="#74D7EA"/>
<path d="M33.0105 15.2256L31.2712 13.3218C31.2712 13.3218 31.1537 13.5568 31.0832 13.6508C31.0103 13.7063 30.9314 13.7536 30.8481 13.7918L32.6579 15.6956C32.947 16.0123 33.2702 16.296 33.6216 16.5418L34.0446 16.8238L33.7861 16.3772C33.5721 15.9651 33.3119 15.5787 33.0105 15.2256Z" fill="#74D7EA"/>
<path d="M39.6862 11.8411L41.496 9.96083C41.7902 9.63274 42.0428 9.26961 42.2481 8.87967L42.5067 8.43311L42.0836 8.71515C41.7143 8.93773 41.3747 9.20624 41.073 9.51426L39.2632 11.371L39.4982 11.5356C39.5826 11.6223 39.6468 11.7267 39.6862 11.8411Z" fill="#74D7EA"/>
<path d="M37.4063 13.416L35.667 15.2258C35.3668 15.5491 35.1136 15.913 34.9149 16.3069L34.6564 16.7535L35.0794 16.542C35.4541 16.3273 35.7948 16.0579 36.0901 15.7429L37.8528 13.9331C37.7421 13.8764 37.6394 13.8052 37.5473 13.7216C37.4867 13.6266 37.4393 13.5238 37.4063 13.416Z" fill="#74D7EA"/>
<path d="M35.667 10.0313L37.4063 11.8411C37.439 11.755 37.4867 11.6754 37.5473 11.6061L37.8293 11.3945L36.0901 9.49076C35.7888 9.18884 35.449 8.92804 35.0794 8.71515L34.6564 8.43311L34.9149 8.87967C35.1078 9.29836 35.3612 9.68641 35.667 10.0313Z" fill="#74D7EA"/>
<path d="M41.496 15.2256L39.6862 13.3218C39.6862 13.3218 39.6862 13.5568 39.4982 13.6508C39.4253 13.7063 39.3465 13.7536 39.2632 13.7918L41.073 15.6956C41.3768 16.015 41.7158 16.2988 42.0836 16.5418L42.5067 16.8238L42.2481 16.3772C42.0416 15.9663 41.7893 15.5799 41.496 15.2256Z" fill="#74D7EA"/>
<path d="M48.1707 11.8411L49.9805 9.96083C50.2747 9.63274 50.5273 9.26961 50.7326 8.87967L50.9911 8.43311L50.568 8.71515C50.1987 8.93773 49.8591 9.20624 49.5574 9.51426L47.7241 11.4415L47.9592 11.6061C48.0442 11.67 48.116 11.7498 48.1707 11.8411Z" fill="#74D7EA"/>
<path d="M45.8911 13.416L44.1519 15.2258C43.8517 15.5491 43.5985 15.913 43.3998 16.3069L43.1412 16.7535L43.5643 16.542C43.939 16.3273 44.2796 16.0579 44.5749 15.7429L46.3377 13.9331C46.227 13.8764 46.1242 13.8052 46.0322 13.7216C45.9716 13.6266 45.9241 13.5238 45.8911 13.416Z" fill="#74D7EA"/>
<path d="M44.1519 10.0313C44.6455 10.5484 45.2565 11.1595 45.8676 11.8411C45.9168 11.759 45.9718 11.6804 46.0322 11.6061L46.3142 11.3945L44.5749 9.49076C44.2737 9.18884 43.9339 8.92804 43.5643 8.71515L43.1412 8.43311L43.3998 8.87967C43.5927 9.29836 43.8461 9.68641 44.1519 10.0313Z" fill="#74D7EA"/>
<path d="M50.0745 15.2256L48.2647 13.3218C48.2647 13.3218 48.1472 13.5568 48.0767 13.6508C48.0038 13.7063 47.925 13.7536 47.8417 13.7918L49.6514 15.6956C49.959 15.9903 50.2979 16.2504 50.6621 16.4712L51.0852 16.7533L50.8266 16.3067C50.6156 15.9203 50.3634 15.5578 50.0745 15.2256Z" fill="#74D7EA"/>
<path d="M56.6558 11.8409L58.4656 9.96063C58.7598 9.63254 59.0124 9.26941 59.2177 8.87947L59.4763 8.50342L59.0532 8.78546C58.6798 9.01255 58.333 9.28058 58.019 9.58458L56.2328 11.4413L56.4678 11.6059C56.5391 11.6769 56.6022 11.7557 56.6558 11.8409Z" fill="#74D7EA"/>
<path d="M54.3759 13.416L52.6366 15.2258C52.3364 15.5491 52.0832 15.913 51.8845 16.3069L51.626 16.7535L52.049 16.542C52.4237 16.3273 52.7644 16.0579 53.0597 15.7429L54.7754 13.8626C54.6647 13.8059 54.562 13.7347 54.4699 13.651C54.4307 13.5761 54.3992 13.4973 54.3759 13.416Z" fill="#74D7EA"/>
<path d="M52.6366 10.0313L54.3759 11.8411C54.4086 11.755 54.4563 11.6754 54.5169 11.6061C54.5976 11.5291 54.684 11.4584 54.7754 11.3945L53.0597 9.49076C52.7584 9.18884 52.4186 8.92804 52.049 8.71515L51.626 8.43311L51.8845 8.87967C52.0774 9.29836 52.3308 9.68641 52.6366 10.0313Z" fill="#74D7EA"/>
<path d="M58.4656 15.2256L56.6558 13.3218C56.6558 13.3218 56.5383 13.5568 56.4678 13.6508C56.3949 13.7063 56.3161 13.7536 56.2328 13.7918L58.0425 15.6956C58.3501 15.9903 58.689 16.2504 59.0532 16.4712C59.2011 16.5545 59.3425 16.6488 59.4763 16.7533L59.2177 16.3067C59.0067 15.9203 58.7545 15.5578 58.4656 15.2256Z" fill="#74D7EA"/>
<path d="M5.74665 20.3495L7.55642 18.4457C7.85062 18.1176 8.10323 17.7545 8.30853 17.3645L8.56706 16.918L8.144 17.2C7.77469 17.4226 7.4351 17.6911 7.13335 17.9991L5.4176 19.8794C5.5037 19.9121 5.58328 19.9598 5.65264 20.0204C5.70435 20.1232 5.73625 20.2349 5.74665 20.3495Z" fill="#74D7EA"/>
<path d="M3.46707 21.8301L1.72781 23.5928C1.43889 23.9251 1.18672 24.2876 0.975701 24.674L0.717163 25.1676L1.14023 24.8855C1.51514 24.6807 1.85606 24.4191 2.15087 24.1099L3.91363 22.2766C3.8029 22.2199 3.70016 22.1488 3.60809 22.0651C3.55258 21.9922 3.50528 21.9134 3.46707 21.8301Z" fill="#74D7EA"/>
<path d="M1.72781 18.4457L3.46707 20.2555C3.49975 20.1694 3.5475 20.0898 3.60809 20.0204C3.69632 19.9425 3.79063 19.8718 3.89013 19.8089L2.15087 17.9991C1.84913 17.6911 1.50953 17.4226 1.14023 17.2L0.717163 16.918L0.975701 17.3645C1.17443 17.7584 1.42761 18.1224 1.72781 18.4457Z" fill="#74D7EA"/>
<path d="M7.5568 23.5927L5.74704 21.689L5.55901 21.9945C5.48609 22.05 5.40727 22.0973 5.32397 22.1355L7.13374 24.0393C7.43499 24.3412 7.77481 24.602 8.14439 24.8149L8.56745 25.097L8.30891 24.6739C8.11019 24.28 7.857 23.9161 7.5568 23.5927Z" fill="#74D7EA"/>
<path d="M14.2314 20.3495L16.0411 18.4457C16.3354 18.1176 16.588 17.7545 16.7933 17.3645L17.1693 16.918L16.7463 17.2C16.3769 17.4226 16.0374 17.6911 15.7356 17.9991C15.2185 18.5162 14.5839 19.1743 13.9493 19.8794C14.025 19.9181 14.096 19.9654 14.1609 20.0204C14.2045 20.1248 14.2284 20.2364 14.2314 20.3495Z" fill="#74D7EA"/>
<path d="M11.9522 21.8301L10.1189 23.5928C9.83 23.9251 9.57784 24.2876 9.36681 24.674L9.10828 25.1206L9.53134 24.8385C9.90625 24.6337 10.2472 24.3721 10.542 24.0629L12.4693 22.2766C12.3585 22.2199 12.2558 22.1488 12.1637 22.0651C12.0835 21.9961 12.0124 21.9171 11.9522 21.8301Z" fill="#74D7EA"/>
<path d="M10.1183 18.4457L11.8575 20.2555C11.8902 20.1694 11.938 20.0898 11.9986 20.0204C12.1465 19.9318 12.3042 19.8608 12.4686 19.8089L10.7294 17.9991C10.4276 17.6911 10.088 17.4226 9.71872 17.2L9.29565 16.918L9.55419 17.3645C9.69448 17.7479 9.8841 18.1113 10.1183 18.4457Z" fill="#74D7EA"/>
<path d="M16.0415 23.5927L14.2318 21.689L14.0438 21.9945C13.9708 22.05 13.892 22.0973 13.8087 22.1355L15.6185 24.0393C15.9197 24.3412 16.2596 24.602 16.6291 24.8149L17.0522 25.097L16.7937 24.6739C16.5949 24.28 16.3417 23.9161 16.0415 23.5927Z" fill="#74D7EA"/>
<path d="M22.7166 20.3495L24.5264 18.4457C24.8206 18.1176 25.0732 17.7545 25.2785 17.3645L25.5371 16.918L25.114 17.2C24.7447 17.4226 24.4051 17.6911 24.1033 17.9991L22.2936 19.8794C22.3769 19.9176 22.4557 19.9649 22.5286 20.0204C22.6135 20.1158 22.6776 20.2279 22.7166 20.3495Z" fill="#74D7EA"/>
<path d="M20.4367 21.8301L18.6974 23.5928C18.4085 23.9251 18.1563 24.2876 17.9453 24.674L17.6868 25.1206L18.1098 24.8385C18.4847 24.6337 18.8257 24.3721 19.1205 24.0629L20.8832 22.2296C20.7725 22.1729 20.6698 22.1018 20.5777 22.0181C20.5249 21.96 20.4776 21.8971 20.4367 21.8301Z" fill="#74D7EA"/>
<path d="M18.6974 18.4457L20.4367 20.2555C20.4694 20.1694 20.5171 20.0898 20.5777 20.0204L20.8597 19.8089L19.1205 17.9991C18.8187 17.6911 18.4791 17.4226 18.1098 17.2L17.6868 16.918L17.9453 17.3645C18.144 17.7584 18.3972 18.1224 18.6974 18.4457Z" fill="#74D7EA"/>
<path d="M24.5264 23.5927L22.7166 21.689L22.5286 21.9945C22.4557 22.05 22.3769 22.0973 22.2936 22.1355L24.1033 24.0393C24.4046 24.3412 24.7444 24.602 25.114 24.8149L25.5371 25.097L25.2785 24.6739C25.0798 24.28 24.8266 23.9161 24.5264 23.5927Z" fill="#74D7EA"/>
<path d="M31.2713 20.3495L33.0811 18.4457C33.3753 18.1176 33.6279 17.7545 33.8332 17.3645L34.0918 16.918L33.6217 17.2C33.2524 17.4226 32.9128 17.6911 32.611 17.9991L30.8013 19.8794C30.8874 19.9121 30.967 19.9598 31.0363 20.0204C31.1382 20.1112 31.2185 20.2237 31.2713 20.3495Z" fill="#74D7EA"/>
<path d="M28.9215 21.8301L27.1823 23.6398C26.8934 23.9721 26.6412 24.3346 26.4302 24.721L26.1716 25.1676L26.5947 24.8855C26.9696 24.6807 27.3105 24.4191 27.6053 24.1099L29.3681 22.2766C29.2574 22.2199 29.1546 22.1488 29.0626 22.0651C29.007 21.9922 28.9598 21.9134 28.9215 21.8301Z" fill="#74D7EA"/>
<path d="M27.1819 18.4457L28.9211 20.2555C28.9538 20.1694 29.0016 20.0898 29.0621 20.0204C29.1504 19.9425 29.2447 19.8718 29.3442 19.8089L27.6049 17.9991C27.2959 17.6895 26.9483 17.4209 26.5708 17.2L26.1477 16.918L26.4062 17.3645C26.6122 17.7599 26.8734 18.1239 27.1819 18.4457Z" fill="#74D7EA"/>
<path d="M33.0105 23.593L31.2712 21.7598L31.0832 22.0653C31.0103 22.1208 30.9314 22.1681 30.8481 22.2063L32.6579 24.1101C32.9592 24.412 33.299 24.6728 33.6686 24.8857L34.0916 25.1678L33.8331 24.7447C33.6186 24.3215 33.3412 23.9332 33.0105 23.593Z" fill="#74D7EA"/>
<path d="M39.6862 20.3495L41.496 18.4457C41.7902 18.1176 42.0428 17.7545 42.2481 17.3645L42.5067 16.918L42.0836 17.2C41.7143 17.4226 41.3747 17.6911 41.073 17.9991L39.2632 19.8794C39.3465 19.9176 39.4253 19.9649 39.4982 20.0204C39.5831 20.1158 39.6472 20.2279 39.6862 20.3495Z" fill="#74D7EA"/>
<path d="M37.4063 21.8301L35.667 23.6398C35.3781 23.9721 35.1259 24.3346 34.9149 24.721L34.6564 25.1676L35.0794 24.8855C35.4543 24.6807 35.7953 24.4191 36.0901 24.1099L37.8528 22.2766C37.7421 22.2199 37.6394 22.1488 37.5473 22.0651C37.4918 21.9922 37.4445 21.9134 37.4063 21.8301Z" fill="#74D7EA"/>
<path d="M35.667 18.4457L37.4063 20.2555C37.439 20.1694 37.4867 20.0898 37.5473 20.0204L37.8293 19.8089L36.0901 17.9991C35.7883 17.6911 35.4487 17.4226 35.0794 17.2L34.6564 16.918L34.9149 17.3645C35.1136 17.7584 35.3668 18.1224 35.667 18.4457Z" fill="#74D7EA"/>
<path d="M41.496 23.5927L39.6862 21.689L39.4982 21.9945C39.4253 22.05 39.3465 22.0973 39.2632 22.1355L41.073 24.0393C41.3742 24.3412 41.714 24.602 42.0836 24.8149L42.5067 25.097L42.2481 24.6739C42.0494 24.28 41.7962 23.9161 41.496 23.5927Z" fill="#74D7EA"/>
<path d="M48.1707 20.3495L50.0745 18.4457C50.3687 18.1176 50.6213 17.7545 50.8266 17.3645L51.0852 16.918L50.6621 17.2C50.2928 17.4226 49.9532 17.6911 49.6514 17.9991L47.8417 19.8794C47.925 19.9176 48.0038 19.9649 48.0767 20.0204C48.1284 20.1232 48.1603 20.2349 48.1707 20.3495Z" fill="#74D7EA"/>
<path d="M45.8911 21.8301L44.1519 23.6398C43.863 23.9721 43.6108 24.3346 43.3998 24.721L43.1412 25.1676L43.5643 24.8855C43.9392 24.6807 44.2801 24.4191 44.5749 24.1099L46.3377 22.2766C46.227 22.2199 46.1242 22.1488 46.0322 22.0651C45.9767 21.9922 45.9294 21.9134 45.8911 21.8301Z" fill="#74D7EA"/>
<path d="M44.1519 18.4457L45.8676 20.2555C45.9168 20.1733 45.9718 20.0948 46.0322 20.0204C46.1204 19.9425 46.2147 19.8718 46.3142 19.8089L44.5749 17.9991C44.2732 17.6911 43.9336 17.4226 43.5643 17.2L43.1412 16.918L43.3998 17.3645C43.5985 17.7584 43.8517 18.1224 44.1519 18.4457Z" fill="#74D7EA"/>
<path d="M50.0745 23.5927L48.2647 21.689L48.0767 21.9945C48.0038 22.05 47.925 22.0973 47.8417 22.1355L49.6514 24.0393C49.9527 24.3412 50.2925 24.602 50.6621 24.8149L51.0852 25.097L50.8266 24.6739C50.6279 24.28 50.3747 23.9161 50.0745 23.5927Z" fill="#74D7EA"/>
<path d="M56.6558 20.3495L58.4656 18.4457C58.7598 18.1176 59.0124 17.7545 59.2177 17.3645L59.4763 16.918L59.0532 17.2C58.6798 17.4271 58.333 17.6951 58.019 17.9991L56.2328 19.8794C56.3161 19.9176 56.3949 19.9649 56.4678 20.0204C56.5441 20.1217 56.6073 20.2323 56.6558 20.3495Z" fill="#74D7EA"/>
<path d="M54.3759 21.8301L52.6366 23.6398C52.3477 23.9721 52.0955 24.3346 51.8845 24.721L51.626 25.1676L52.049 24.8855C52.424 24.6807 52.7649 24.4191 53.0597 24.1099L54.7754 22.2766C54.6647 22.2199 54.562 22.1488 54.4699 22.0651C54.4307 21.9902 54.3992 21.9114 54.3759 21.8301Z" fill="#74D7EA"/>
<path d="M52.6363 18.4457L54.3756 20.2555C54.4083 20.1694 54.456 20.0898 54.5166 20.0204C54.5973 19.9435 54.6837 19.8728 54.7751 19.8089L53.0359 17.9991C52.7341 17.6911 52.3945 17.4226 52.0252 17.2C51.8773 17.1167 51.7359 17.0225 51.6022 16.918L51.8607 17.3645C52.0667 17.7599 52.3278 18.1239 52.6363 18.4457Z" fill="#74D7EA"/>
<path d="M58.4656 23.5927L56.6558 21.689L56.4678 21.9945C56.3949 22.05 56.3161 22.0973 56.2328 22.1355L58.0425 24.0393C58.3438 24.3412 58.6836 24.602 59.0532 24.8149L59.4763 25.097L59.2177 24.6739C59.019 24.28 58.7658 23.9161 58.4656 23.5927Z" fill="#74D7EA"/>
<path d="M5.74665 28.7635L7.55642 26.8597C7.85661 26.5364 8.1098 26.1724 8.30853 25.7785L8.56706 25.3555L8.144 25.614C7.77469 25.8366 7.4351 26.1051 7.13335 26.4131L5.4176 28.2934C5.5037 28.3261 5.58328 28.3738 5.65264 28.4344C5.70435 28.5372 5.73625 28.6489 5.74665 28.7635Z" fill="#74D7EA"/>
<path d="M3.46707 30.2441L1.72781 32.0774C1.43482 32.3979 1.18223 32.7531 0.975701 33.1351L0.717163 33.5816L1.14023 33.3231C1.50953 33.1005 1.84913 32.832 2.15087 32.524L3.91363 30.6437C3.8029 30.587 3.70016 30.5158 3.60809 30.4322C3.5518 30.377 3.50425 30.3136 3.46707 30.2441Z" fill="#74D7EA"/>
<path d="M1.72781 26.8597L3.46707 28.6695C3.50528 28.5862 3.55258 28.5073 3.60809 28.4344C3.69862 28.3808 3.79288 28.3336 3.89013 28.2934L2.15087 26.4131C1.84913 26.1051 1.50953 25.8366 1.14023 25.614L0.717163 25.3555L0.975701 25.7785C1.17443 26.1724 1.42761 26.5364 1.72781 26.8597Z" fill="#74D7EA"/>
<path d="M7.55642 32.0776L5.74665 30.1738L5.55862 30.4794L5.4176 30.6439L7.22737 32.5242C7.52218 32.8333 7.8631 33.095 8.23802 33.2998L8.66108 33.5818L8.40254 33.1588C8.17493 32.7589 7.88985 32.3946 7.55642 32.0776Z" fill="#74D7EA"/>
<path d="M14.2314 28.7635L16.0411 26.8597C16.3413 26.5364 16.5945 26.1724 16.7933 25.7785L17.1693 25.3555L16.7463 25.614C16.3769 25.8366 16.0374 26.1051 15.7356 26.4131C15.2185 26.9302 14.5839 27.6118 13.9493 28.2934C14.025 28.3321 14.096 28.3794 14.1609 28.4344C14.2045 28.5388 14.2284 28.6504 14.2314 28.7635Z" fill="#74D7EA"/>
<path d="M11.9522 30.2441L10.1189 32.0774C9.82593 32.3979 9.57334 32.7531 9.36681 33.1351L9.10828 33.5816L9.53134 33.3231C9.90065 33.1005 10.2402 32.832 10.542 32.524L12.4693 30.6437C12.3585 30.587 12.2558 30.5158 12.1637 30.4322C12.0823 30.383 12.0106 30.3193 11.9522 30.2441Z" fill="#74D7EA"/>
<path d="M10.1183 26.8595L11.8575 28.6693C11.8957 28.586 11.943 28.5071 11.9986 28.4342C12.1495 28.3699 12.3072 28.3226 12.4686 28.2932L10.7294 26.4834C10.4276 26.1754 10.088 25.9069 9.71872 25.6843L9.29565 25.4258L9.55419 25.8488C9.69987 26.2077 9.88933 26.5471 10.1183 26.8595Z" fill="#74D7EA"/>
<path d="M16.0415 32.0776L14.2318 30.1738L14.0438 30.4794L13.8087 30.6439L15.6185 32.5242C15.9133 32.8333 16.2542 33.095 16.6291 33.2998L17.0522 33.5818L16.7937 33.1588C16.5949 32.7649 16.3417 32.4009 16.0415 32.0776Z" fill="#74D7EA"/>
<path d="M22.7166 28.7635L24.5264 26.8597C24.8266 26.5364 25.0798 26.1724 25.2785 25.7785L25.5371 25.3555L25.114 25.614C24.7447 25.8366 24.4051 26.1051 24.1033 26.4131L22.2936 28.2934C22.3769 28.3316 22.4557 28.3789 22.5286 28.4344C22.6135 28.5298 22.6776 28.6419 22.7166 28.7635Z" fill="#74D7EA"/>
<path d="M20.4367 30.2441L18.6974 32.0774C18.4044 32.3979 18.1518 32.7531 17.9453 33.1351L17.6868 33.5816L18.1098 33.3231C18.4791 33.1005 18.8187 32.832 19.1205 32.524L20.8832 30.6437C20.7725 30.587 20.6698 30.5158 20.5777 30.4322C20.5214 30.377 20.4739 30.3136 20.4367 30.2441Z" fill="#74D7EA"/>
<path d="M18.6974 26.8595L20.4367 28.6693C20.4749 28.586 20.5222 28.5071 20.5777 28.4342L20.8597 28.2932L19.1205 26.4834C18.8187 26.1754 18.4791 25.9069 18.1098 25.6843L17.6868 25.4258L17.9453 25.8488C18.1495 26.2179 18.4025 26.5579 18.6974 26.8595Z" fill="#74D7EA"/>
<path d="M24.5264 32.0776L22.7166 30.1738L22.5286 30.4794L22.2936 30.6439L24.1033 32.5242C24.3982 32.8333 24.7391 33.095 25.114 33.2998L25.5371 33.5818L25.2785 33.1588C25.0798 32.7649 24.8266 32.4009 24.5264 32.0776Z" fill="#74D7EA"/>
<path d="M31.2712 28.7635L33.081 26.8597C33.3812 26.5364 33.6344 26.1724 33.8331 25.7785L34.0916 25.3555L33.6686 25.614C33.2993 25.8366 32.9597 26.1051 32.6579 26.4131L30.8481 28.2934C30.9342 28.3261 31.0138 28.3738 31.0832 28.4344C31.1681 28.5298 31.2321 28.6419 31.2712 28.7635Z" fill="#74D7EA"/>
<path d="M28.9215 30.2441L27.1823 32.0774C26.8893 32.3979 26.6367 32.7531 26.4302 33.1351L26.1716 33.5816L26.5947 33.3231C26.964 33.1005 27.3036 32.832 27.6053 32.524L29.3681 30.6907C29.2574 30.634 29.1546 30.5629 29.0626 30.4792C29.002 30.4098 28.9542 30.3302 28.9215 30.2441Z" fill="#74D7EA"/>
<path d="M27.1823 26.8597L28.9215 28.6695C28.9598 28.5862 29.007 28.5073 29.0626 28.4344C29.1508 28.3565 29.2451 28.2858 29.3446 28.2229L27.6053 26.4131C27.3036 26.1051 26.964 25.8366 26.5947 25.614L26.1716 25.3555L26.4302 25.7785C26.6289 26.1724 26.8821 26.5364 27.1823 26.8597Z" fill="#74D7EA"/>
<path d="M33.0105 32.0776L31.2712 30.1738L31.0832 30.4794L30.8481 30.6439L32.6579 32.5242C32.9527 32.8333 33.2937 33.095 33.6686 33.2998L34.0916 33.5818L33.8331 33.1588C33.6127 32.7604 33.3356 32.3963 33.0105 32.0776Z" fill="#74D7EA"/>
<path d="M39.6862 28.7635L41.496 26.8597C41.7962 26.5364 42.0494 26.1724 42.2481 25.7785L42.5067 25.3555L42.0836 25.614C41.7143 25.8366 41.3747 26.1051 41.073 26.4131L39.2632 28.2934C39.3465 28.3316 39.4253 28.3789 39.4982 28.4344C39.5831 28.5298 39.6472 28.6419 39.6862 28.7635Z" fill="#74D7EA"/>
<path d="M37.4063 30.2441L35.667 32.0774C35.374 32.3979 35.1214 32.7531 34.9149 33.1351L34.6564 33.5816L35.0794 33.3231C35.4487 33.1005 35.7883 32.832 36.0901 32.524L37.8528 30.6437C37.7421 30.587 37.6394 30.5158 37.5473 30.4322C37.491 30.377 37.4435 30.3136 37.4063 30.2441Z" fill="#74D7EA"/>
<path d="M35.667 26.8597L37.4063 28.6695C37.4445 28.5862 37.4918 28.5073 37.5473 28.4344L37.8293 28.2229L36.0901 26.4131C35.7883 26.1051 35.4487 25.8366 35.0794 25.614L34.6564 25.3555L34.9149 25.7785C35.1136 26.1724 35.3668 26.5364 35.667 26.8597Z" fill="#74D7EA"/>
<path d="M41.496 32.0776L39.6862 30.1738L39.4982 30.4794L39.2632 30.6439L41.073 32.5242C41.3678 32.8333 41.7087 33.095 42.0836 33.2998L42.5067 33.5818L42.2481 33.1588C42.0494 32.7649 41.7962 32.4009 41.496 32.0776Z" fill="#74D7EA"/>
<path d="M48.1707 28.7635L49.9805 26.8597C50.2806 26.5364 50.5338 26.1724 50.7326 25.7785L50.9911 25.3555L50.568 25.614C50.1987 25.8366 49.8591 26.1051 49.5574 26.4131L47.7241 28.2934C47.8074 28.3316 47.8862 28.3789 47.9592 28.4344C48.0525 28.5276 48.1247 28.6398 48.1707 28.7635Z" fill="#74D7EA"/>
<path d="M45.8911 30.2441L44.1519 32.0774C43.8589 32.3979 43.6063 32.7531 43.3998 33.1351L43.1412 33.5816L43.5643 33.3231C43.9336 33.1005 44.2732 32.832 44.5749 32.524L46.3377 30.6907C46.227 30.634 46.1242 30.5629 46.0322 30.4792C45.9716 30.4098 45.9238 30.3302 45.8911 30.2441Z" fill="#74D7EA"/>
<path d="M44.1519 26.8595L45.8676 28.6693C45.8676 28.6693 45.8676 28.5047 46.0322 28.4342C46.1227 28.3806 46.2169 28.3334 46.3142 28.2932L44.5749 26.4834C44.2732 26.1754 43.9336 25.9069 43.5643 25.6843L43.1412 25.4258L43.3998 25.8488C43.604 26.2179 43.857 26.5579 44.1519 26.8595Z" fill="#74D7EA"/>
<path d="M50.0745 32.0776L48.2647 30.1738L48.0767 30.4794L47.7241 30.6439L49.5339 32.5242C49.8287 32.8333 50.1696 33.095 50.5445 33.2998L50.9676 33.5818L50.7091 33.1588C50.5468 32.7717 50.3333 32.408 50.0745 32.0776Z" fill="#74D7EA"/>
<path d="M56.6558 28.7635L58.4656 26.8597C58.7658 26.5364 59.019 26.1724 59.2177 25.7785L59.4763 25.3555L59.0532 25.614C58.6798 25.8411 58.333 26.1091 58.019 26.4131L56.2328 28.2934C56.3161 28.3316 56.3949 28.3789 56.4678 28.4344C56.5441 28.5357 56.6073 28.6463 56.6558 28.7635Z" fill="#74D7EA"/>
<path d="M54.3759 30.2441L52.6366 32.0774C52.3436 32.3979 52.091 32.7531 51.8845 33.1351L51.626 33.5816L52.049 33.3231C52.4183 33.1005 52.7579 32.832 53.0597 32.524L54.7754 30.6437C54.6647 30.587 54.562 30.5158 54.4699 30.4322C54.4302 30.374 54.3985 30.3108 54.3759 30.2441Z" fill="#74D7EA"/>
<path d="M52.6362 26.8595L54.3755 28.6693C54.4137 28.586 54.461 28.5071 54.5165 28.4342C54.5994 28.3815 54.6858 28.3344 54.775 28.2932L53.0358 26.4834C52.734 26.1754 52.3944 25.9069 52.0251 25.6843L51.6021 25.4258L51.8606 25.8488C52.0721 26.2194 52.333 26.5594 52.6362 26.8595Z" fill="#74D7EA"/>
<path d="M58.4656 32.0776L56.6558 30.1738L56.4678 30.4794L56.2328 30.6439L58.0425 32.5242C58.3374 32.8333 58.6783 33.095 59.0532 33.2998L59.4763 33.5818L59.2177 33.1588C59.019 32.7649 58.7658 32.4009 58.4656 32.0776Z" fill="#74D7EA"/>
<path d="M5.74704 37.1778L7.5568 35.3446C7.857 35.0212 8.11019 34.6573 8.30891 34.2634L8.56745 33.8403L8.14439 34.1224C7.76948 34.3272 7.42855 34.5888 7.13374 34.898L5.32397 36.7783C5.41007 36.8109 5.48966 36.8587 5.55901 36.9193C5.63634 36.9938 5.69999 37.0813 5.74704 37.1778Z" fill="#74D7EA"/>
<path d="M3.46707 38.6821L1.72781 40.4919C1.42761 40.8152 1.17443 41.1792 0.975701 41.5731L0.717163 41.9961L1.14023 41.7376C1.50953 41.515 1.84913 41.2465 2.15087 40.9385L3.91363 39.1052C3.79808 39.0569 3.69398 38.9848 3.60809 38.8937C3.5531 38.8288 3.50578 38.7578 3.46707 38.6821Z" fill="#74D7EA"/>
<path d="M1.72781 35.3447L3.46707 37.1545C3.50528 37.0712 3.55258 36.9924 3.60809 36.9195C3.69056 36.841 3.78598 36.7774 3.89013 36.7315L2.15087 34.8982C1.84913 34.5902 1.50953 34.3216 1.14023 34.0991L0.717163 33.77L0.975701 34.2166C1.17718 34.6232 1.42994 35.0024 1.72781 35.3447Z" fill="#74D7EA"/>
<path d="M7.5568 40.4917L5.74704 38.5879L5.55901 38.8934L5.32397 39.058L7.13374 40.9382C7.43549 41.2463 7.77508 41.5148 8.14439 41.7374L8.56745 41.9959L8.30891 41.5728C8.11019 41.1789 7.857 40.815 7.5568 40.4917Z" fill="#74D7EA"/>
<path d="M14.2314 37.1775L16.0411 35.3443C16.3413 35.021 16.5945 34.657 16.7933 34.2631L17.1693 33.7695L16.7463 34.0516C16.3713 34.2564 16.0304 34.518 15.7356 34.8272C15.2185 35.3443 14.5839 36.0259 13.9493 36.7075C14.025 36.7462 14.096 36.7935 14.1609 36.8485C14.2045 36.9529 14.2284 37.0644 14.2314 37.1775Z" fill="#74D7EA"/>
<path d="M11.9522 38.6821L10.1189 40.4919C9.81873 40.8152 9.56554 41.1792 9.36681 41.5731L9.10828 41.9961L9.53134 41.7376C9.90065 41.515 10.2402 41.2465 10.542 40.9385L12.4693 39.1052C12.3537 39.0569 12.2496 38.9848 12.1637 38.8937C12.0839 38.8331 12.0128 38.7619 11.9522 38.6821Z" fill="#74D7EA"/>
<path d="M10.1183 35.3443L11.8575 37.154C11.8957 37.0707 11.943 36.9919 11.9986 36.919C12.1284 36.7911 12.2911 36.7016 12.4686 36.6605L10.7294 34.8272C10.4276 34.5192 10.088 34.2506 9.71872 34.0281L9.29565 33.7695L9.55419 34.2161C9.69675 34.6132 9.88611 34.9919 10.1183 35.3443Z" fill="#74D7EA"/>
<path d="M16.0415 40.4917L14.2318 38.5879L14.0438 38.8934L13.8087 39.058L15.6185 40.9382C15.9202 41.2463 16.2598 41.5148 16.6291 41.7374L17.0522 41.9959L16.7937 41.5728C16.5949 41.1789 16.3417 40.815 16.0415 40.4917Z" fill="#74D7EA"/>
<path d="M22.7166 37.1775L24.5264 35.2738C24.8266 34.9504 25.0798 34.5865 25.2785 34.1926L25.5371 33.7695L25.114 34.0516C24.7391 34.2564 24.3982 34.518 24.1033 34.8272L22.2936 36.7075C22.3769 36.7457 22.4557 36.793 22.5286 36.8485C22.6135 36.9439 22.6776 37.056 22.7166 37.1775Z" fill="#74D7EA"/>
<path d="M20.4367 38.6821L18.6974 40.4919C18.3972 40.8152 18.144 41.1792 17.9453 41.5731L17.6868 41.9961L18.1098 41.7376C18.4791 41.515 18.8187 41.2465 19.1205 40.9385L20.8832 39.1052C20.7677 39.0569 20.6636 38.9848 20.5777 38.8937C20.5227 38.8288 20.4754 38.7578 20.4367 38.6821Z" fill="#74D7EA"/>
<path d="M18.6974 35.3446L20.4367 37.1543C20.4749 37.071 20.5222 36.9922 20.5777 36.9193C20.6602 36.8408 20.7556 36.7772 20.8597 36.7313L19.1205 34.898C18.8187 34.59 18.4791 34.3215 18.1098 34.0989L17.6868 33.8403L17.9453 34.2869C18.1518 34.6689 18.4044 35.0241 18.6974 35.3446Z" fill="#74D7EA"/>
<path d="M24.5264 40.4917L22.7166 38.5879L22.5286 38.8934L22.2936 39.058L24.1033 40.9382C24.4051 41.2463 24.7447 41.5148 25.114 41.7374L25.5371 41.9959L25.2785 41.5728C25.0798 41.1789 24.8266 40.815 24.5264 40.4917Z" fill="#74D7EA"/>
<path d="M31.2712 37.1775L33.081 35.2738C33.3812 34.9504 33.6344 34.5865 33.8331 34.1926L34.0916 33.7695L33.6686 34.0516C33.2937 34.2564 32.9527 34.518 32.6579 34.8272L30.8481 36.7075C30.9342 36.7401 31.0138 36.7879 31.0832 36.8485C31.1681 36.9439 31.2321 37.056 31.2712 37.1775Z" fill="#74D7EA"/>
<path d="M28.9215 38.6821L27.1823 40.4919C26.8821 40.8152 26.6289 41.1792 26.4302 41.5731L26.1716 41.9961L26.5947 41.7376C26.964 41.515 27.3036 41.2465 27.6053 40.9385L29.3681 39.1052C29.2525 39.0569 29.1484 38.9848 29.0626 38.8937C29.0076 38.8288 28.9602 38.7578 28.9215 38.6821Z" fill="#74D7EA"/>
<path d="M27.1823 35.3446L28.9215 37.1543C28.9598 37.071 29.007 36.9922 29.0626 36.9193C29.145 36.8408 29.2404 36.7772 29.3446 36.7313L27.6053 34.898C27.3036 34.59 26.964 34.3215 26.5947 34.0989L26.1716 33.8403L26.4302 34.2869C26.6367 34.6689 26.8893 35.0241 27.1823 35.3446Z" fill="#74D7EA"/>
<path d="M33.0105 40.4917L31.2712 38.5879L31.0832 38.8934L30.8481 39.058L32.6579 40.9382C32.9597 41.2463 33.2993 41.5148 33.6686 41.7374L34.0916 41.9959L33.8331 41.5728C33.6127 41.1745 33.3356 40.8103 33.0105 40.4917Z" fill="#74D7EA"/>
<path d="M39.6862 37.1775L41.496 35.2738C41.7962 34.9504 42.0494 34.5865 42.2481 34.1926L42.5067 33.7695L42.0836 34.0516C41.7087 34.2564 41.3678 34.518 41.073 34.8272L39.2632 36.7075C39.3465 36.7457 39.4253 36.793 39.4982 36.8485C39.5831 36.9439 39.6472 37.056 39.6862 37.1775Z" fill="#74D7EA"/>
<path d="M37.4063 38.6821L35.667 40.4919C35.3668 40.8152 35.1136 41.1792 34.9149 41.5731L34.6564 41.9961L35.0794 41.7376C35.4487 41.515 35.7883 41.2465 36.0901 40.9385L37.8528 39.1052C37.7373 39.0569 37.6332 38.9848 37.5473 38.8937C37.4923 38.8288 37.445 38.7578 37.4063 38.6821Z" fill="#74D7EA"/>
<path d="M35.667 35.3446L37.4063 37.1543C37.4445 37.071 37.4918 36.9922 37.5473 36.9193C37.6298 36.8408 37.7252 36.7772 37.8293 36.7313L36.0901 34.898C35.7883 34.59 35.4487 34.3215 35.0794 34.0989L34.6564 33.8403L34.9149 34.2869C35.1214 34.6689 35.374 35.0241 35.667 35.3446Z" fill="#74D7EA"/>
<path d="M41.496 40.4917L39.6862 38.5879L39.4982 38.8934L39.2632 39.058L41.073 40.9382C41.3747 41.2463 41.7143 41.5148 42.0836 41.7374L42.5067 41.9959L42.2481 41.5728C42.0494 41.1789 41.7962 40.815 41.496 40.4917Z" fill="#74D7EA"/>
<path d="M48.1707 37.1778L50.0745 35.3446C50.3747 35.0212 50.6279 34.6573 50.8266 34.2634L51.0852 33.8403L50.6621 34.1224C50.2872 34.3272 49.9463 34.5888 49.6514 34.898L47.8417 36.7783C47.925 36.8165 48.0038 36.8638 48.0767 36.9193C48.1209 37.0002 48.1526 37.0874 48.1707 37.1778Z" fill="#74D7EA"/>
<path d="M45.8911 38.6821L44.1519 40.4919C43.8517 40.8152 43.5985 41.1792 43.3998 41.5731L43.1412 41.9961L43.5643 41.7376C43.9336 41.515 44.2732 41.2465 44.5749 40.9385L46.3377 39.1052C46.2222 39.0569 46.1181 38.9848 46.0322 38.8937C45.9772 38.8288 45.9299 38.7578 45.8911 38.6821Z" fill="#74D7EA"/>
<path d="M44.1519 35.3446L45.8676 37.1543C45.8676 37.1543 45.8676 36.9898 46.0322 36.9193C46.1146 36.8408 46.21 36.7772 46.3142 36.7313L44.5749 34.898C44.2732 34.59 43.9336 34.3215 43.5643 34.0989L43.1412 33.8403L43.3998 34.2869C43.6063 34.6689 43.8589 35.0241 44.1519 35.3446Z" fill="#74D7EA"/>
<path d="M50.0745 40.4917L48.2647 38.5879L48.0767 38.8934L47.8417 39.058L49.6514 40.9382C49.9532 41.2463 50.2928 41.5148 50.6621 41.7374L51.0852 41.9959L50.8266 41.5728C50.6279 41.1789 50.3747 40.815 50.0745 40.4917Z" fill="#74D7EA"/>
<path d="M56.6558 37.1775L58.4656 35.2738C58.7658 34.9504 59.019 34.5865 59.2177 34.1926L59.4763 33.7695L59.0532 34.0516C58.6744 34.2613 58.3264 34.5223 58.019 34.8272L56.2328 36.7075C56.3161 36.7457 56.3949 36.793 56.4678 36.8485C56.5441 36.9498 56.6073 37.0604 56.6558 37.1775Z" fill="#74D7EA"/>
<path d="M54.3759 38.6821L52.6366 40.4919C52.3364 40.8152 52.0832 41.1792 51.8845 41.5731L51.626 41.9961L52.049 41.7376C52.4183 41.515 52.7579 41.2465 53.0597 40.9385L54.7754 39.1052C54.6599 39.0569 54.5558 38.9848 54.4699 38.8937C54.4312 38.8266 54.3997 38.7557 54.3759 38.6821Z" fill="#74D7EA"/>
<path d="M52.6366 35.3446L54.3759 37.1543C54.4141 37.071 54.4614 36.9922 54.5169 36.9193C54.5994 36.8408 54.6948 36.7772 54.7989 36.7313L53.0597 34.898C52.7579 34.59 52.4183 34.3215 52.049 34.0989L51.626 33.8403L51.8845 34.2869C52.091 34.6689 52.3436 35.0241 52.6366 35.3446Z" fill="#74D7EA"/>
<path d="M58.4656 40.4917L56.6558 38.5879L56.4678 38.8934L56.2328 39.058L58.0425 40.9382C58.3443 41.2463 58.6839 41.5148 59.0532 41.7374L59.4763 41.9959L59.2177 41.5728C59.019 41.1789 58.7658 40.815 58.4656 40.4917Z" fill="#74D7EA"/>
<path d="M5.74704 45.5921L7.5568 43.7118C7.85223 43.3761 8.10486 43.0051 8.30891 42.6071L8.56745 42.1841L8.14439 42.3956C7.78018 42.6164 7.44127 42.8765 7.13374 43.1712L5.32397 45.0515L5.55901 45.1925C5.64637 45.3126 5.71017 45.4482 5.74704 45.5921Z" fill="#74D7EA"/>
<path d="M3.46707 47.0962L1.72781 48.906C1.42761 49.2293 1.17443 49.5932 0.975701 49.9871L0.717163 50.4337L1.14023 50.1516C1.50437 49.9583 1.84373 49.7216 2.15087 49.4465L3.91363 47.6133C3.79808 47.565 3.69398 47.4929 3.60809 47.4017C3.54575 47.3077 3.49819 47.2046 3.46707 47.0962Z" fill="#74D7EA"/>
<path d="M1.72781 43.6883L3.46707 45.5216C3.49983 45.4284 3.54745 45.341 3.60809 45.263L3.89013 45.075L2.15087 43.2417C1.86138 42.9075 1.52017 42.6218 1.14023 42.3956L0.717163 42.1841L0.975701 42.6306C1.1763 43.0163 1.42941 43.3722 1.72781 43.6883Z" fill="#74D7EA"/>
<path d="M7.5568 48.906L5.74704 47.0962L5.55901 47.4017L5.32397 47.5663L7.13374 49.4465C7.43549 49.7546 7.77508 50.0231 8.14439 50.2457C8.29228 50.3289 8.4337 50.4232 8.56745 50.5277L8.30891 50.0811C8.11049 49.6583 7.85765 49.2632 7.5568 48.906Z" fill="#74D7EA"/>
<path d="M14.2312 45.5921L16.041 43.7118C16.3364 43.3761 16.5891 43.0051 16.7931 42.6071L17.1692 42.1841L16.6286 42.3956C16.2644 42.6164 15.9255 42.8765 15.6179 43.1712L13.8317 45.0515L14.0432 45.1925C14.1306 45.3126 14.1944 45.4482 14.2312 45.5921Z" fill="#74D7EA"/>
<path d="M11.9522 47.0962L10.1189 48.906C9.81873 49.2293 9.56554 49.5932 9.36681 49.9871L9.10828 50.4337L9.53134 50.1516C9.92835 49.9651 10.2996 49.7281 10.636 49.4465L12.4693 47.5193C12.3537 47.4709 12.2496 47.3989 12.1637 47.3077C12.0839 47.2471 12.0128 47.176 11.9522 47.0962Z" fill="#74D7EA"/>
<path d="M10.1187 43.688L11.8579 45.5213C11.8907 45.4281 11.9383 45.3408 11.9989 45.2627L12.469 45.0747L10.7298 43.2415C10.4119 42.8991 10.0384 42.613 9.62509 42.3953L9.20203 42.1133L9.46056 42.5598C9.62636 42.9647 9.84787 43.3444 10.1187 43.688Z" fill="#74D7EA"/>
<path d="M16.0415 48.906L14.2318 47.0962L14.0438 47.4017L13.8087 47.5663L15.6185 49.4465C15.9202 49.7546 16.2598 50.0231 16.6291 50.2457L17.0522 50.5277L16.7937 50.0811C16.5952 49.6583 16.3424 49.2632 16.0415 48.906Z" fill="#74D7EA"/>
<path d="M22.7166 45.5921L24.5264 43.7118C24.8218 43.3761 25.0745 43.0051 25.2785 42.6071L25.5371 42.1841L25.114 42.4661C24.7498 42.687 24.4109 42.9471 24.1033 43.2417L22.2936 45.122L22.5286 45.263C22.6087 45.3618 22.6722 45.4729 22.7166 45.5921Z" fill="#74D7EA"/>
<path d="M20.4367 47.0962L18.6974 48.906C18.3972 49.2293 18.144 49.5932 17.9453 49.9871L17.6868 50.4337L18.1098 50.1516C18.474 49.9583 18.8133 49.7216 19.1205 49.4465L20.8832 47.6133C20.7677 47.565 20.6636 47.4929 20.5777 47.4017C20.5154 47.3077 20.4678 47.2046 20.4367 47.0962Z" fill="#74D7EA"/>
<path d="M18.6974 43.688L20.4367 45.5213C20.4694 45.4281 20.5171 45.3408 20.5777 45.2627L20.8597 45.0747L19.1205 43.2415C18.831 42.9072 18.4898 42.6215 18.1098 42.3953L17.6868 42.1133L17.9453 42.5598C18.1402 42.9703 18.3935 43.3503 18.6974 43.688Z" fill="#74D7EA"/>
<path d="M24.5264 48.906L22.7166 47.0962L22.5286 47.4017L22.2936 47.5663L24.2209 49.4465C24.5226 49.7546 24.8622 50.0231 25.2315 50.2457C25.3794 50.3289 25.5208 50.4232 25.6546 50.5277L25.396 50.0811C25.1612 49.6515 24.8686 49.2561 24.5264 48.906Z" fill="#74D7EA"/>
<path d="M31.2713 45.5921L33.0811 43.7118C33.3765 43.3761 33.6292 43.0051 33.8332 42.6071L34.0918 42.1841L33.6217 42.3956C33.2575 42.6164 32.9186 42.8765 32.611 43.1712L30.8013 45.0515L31.0363 45.1925C31.1404 45.3088 31.2203 45.4446 31.2713 45.5921Z" fill="#74D7EA"/>
<path d="M28.9215 47.0962L27.1823 48.906C26.8821 49.2293 26.6289 49.5932 26.4302 49.9871L26.1716 50.4337L26.5712 50.1516C26.9405 49.9291 27.2801 49.6605 27.5818 49.3525L29.3446 47.5193C29.229 47.4709 29.1249 47.3989 29.0391 47.3077C28.9923 47.2417 28.9528 47.1708 28.9215 47.0962Z" fill="#74D7EA"/>
<path d="M27.1819 43.688L28.9211 45.5213C28.9539 45.4281 29.0015 45.3408 29.0621 45.2627L29.3442 45.0747L27.6049 43.2415C27.3083 42.9052 26.9591 42.6195 26.5708 42.3953L26.1477 42.1133L26.4062 42.5598C26.6083 42.9717 26.8697 43.3518 27.1819 43.688Z" fill="#74D7EA"/>
<path d="M33.0105 48.906L31.2712 47.0962L31.0832 47.4017L30.8481 47.5663L32.6579 49.4465C32.9597 49.7546 33.2993 50.0231 33.6686 50.2457L34.0916 50.5277L33.8331 50.0811C33.6128 49.6543 33.3361 49.259 33.0105 48.906Z" fill="#74D7EA"/>
<path d="M39.6862 45.5921L41.496 43.7118C41.7914 43.3761 42.0441 43.0051 42.2481 42.6071L42.5067 42.1841L42.0836 42.3956C41.7194 42.6164 41.3805 42.8765 41.073 43.1712L39.2632 45.0515L39.4982 45.1925C39.5856 45.3126 39.6494 45.4482 39.6862 45.5921Z" fill="#74D7EA"/>
<path d="M37.4063 47.0962L35.667 48.906C35.3668 49.2293 35.1136 49.5932 34.9149 49.9871L34.6564 50.4337L35.0794 50.1516C35.4487 49.9291 35.7883 49.6605 36.0901 49.3525L37.8528 47.5193C37.7373 47.4709 37.6332 47.3989 37.5473 47.3077C37.4923 47.2429 37.445 47.1719 37.4063 47.0962Z" fill="#74D7EA"/>
<path d="M35.667 43.6883L37.4063 45.5216C37.439 45.4284 37.4867 45.341 37.5473 45.263L37.8293 45.075L36.0901 43.2417C35.7953 42.9326 35.4543 42.6709 35.0794 42.4661L34.6564 42.1841L34.9149 42.6306C35.1155 43.0163 35.3686 43.3722 35.667 43.6883Z" fill="#74D7EA"/>
<path d="M41.496 48.906L39.6862 47.0962L39.4982 47.4017L39.2632 47.5663L41.073 49.4465C41.3747 49.7546 41.7143 50.0231 42.0836 50.2457L42.5067 50.5277L42.2481 50.0811C42.0497 49.6583 41.7969 49.2632 41.496 48.906Z" fill="#74D7EA"/>
<path d="M48.171 45.5921L49.9808 43.7118C50.2762 43.3761 50.5288 43.0051 50.7329 42.6071L50.9914 42.1841L50.5683 42.4661C50.2041 42.687 49.8652 42.9471 49.5577 43.2417L47.7479 45.122L47.983 45.263C48.063 45.3618 48.1265 45.4729 48.171 45.5921Z" fill="#74D7EA"/>
<path d="M45.8911 47.0962L44.1519 48.906C43.8517 49.2293 43.5985 49.5932 43.3998 49.9871L43.1412 50.4337L43.5643 50.1516C43.9336 49.9291 44.2732 49.6605 44.5749 49.3525L46.3377 47.5193C46.2222 47.4709 46.1181 47.3989 46.0322 47.3077C45.9772 47.2429 45.9299 47.1719 45.8911 47.0962Z" fill="#74D7EA"/>
<path d="M44.1519 43.6883C44.6455 44.2054 45.2565 44.84 45.8676 45.5216C45.9171 45.4321 45.972 45.3457 46.0322 45.263L46.3142 45.075L44.5749 43.2417C44.2801 42.9326 43.9392 42.6709 43.5643 42.4661L43.1412 42.1841L43.3998 42.6306C43.6004 43.0163 43.8535 43.3722 44.1519 43.6883Z" fill="#74D7EA"/>
<path d="M50.0748 48.906L48.171 47.0962L47.983 47.4017L47.7479 47.5663L49.5577 49.4465C49.8594 49.7546 50.199 50.0231 50.5683 50.2457L50.9914 50.5277L50.7329 50.0811C50.5638 49.6633 50.3427 49.2684 50.0748 48.906Z" fill="#74D7EA"/>
<path d="M56.6558 45.5921L58.4656 43.7118C58.761 43.3761 59.0137 43.0051 59.2177 42.6071L59.4763 42.1841L59.0532 42.4661C58.6849 42.6917 58.3387 42.9513 58.019 43.2417L56.2328 45.122L56.4678 45.263C56.5392 45.3675 56.6021 45.4775 56.6558 45.5921Z" fill="#74D7EA"/>
<path d="M54.3759 47.0962L52.6366 48.906C52.3364 49.2293 52.0832 49.5932 51.8845 49.9871L51.626 50.4337L52.049 50.1516C52.4183 49.9291 52.7579 49.6605 53.0597 49.3525L54.8224 47.5193C54.7069 47.4709 54.6028 47.3989 54.5169 47.3077C54.4619 47.2429 54.4146 47.1719 54.3759 47.0962Z" fill="#74D7EA"/>
<path d="M52.6366 43.6883L54.3759 45.5216C54.4086 45.4284 54.4563 45.341 54.5169 45.263L54.7989 45.075L53.0597 43.2417C52.7649 42.9326 52.424 42.6709 52.049 42.4661L51.626 42.1841L51.8845 42.6306C52.0851 43.0163 52.3382 43.3722 52.6366 43.6883Z" fill="#74D7EA"/>
<path d="M58.4656 48.906L56.6558 47.0962L56.4678 47.4017L56.2328 47.5663L58.0425 49.4465C58.3443 49.7546 58.6839 50.0231 59.0532 50.2457C59.2011 50.3289 59.3425 50.4232 59.4763 50.5277L59.2177 50.0811C59.0193 49.6583 58.7665 49.2632 58.4656 48.906Z" fill="#74D7EA"/>
<path d="M5.74665 54.0061L7.55642 52.1259C7.85062 51.7978 8.10323 51.4347 8.30853 51.0447L8.56706 50.5981L8.144 50.8802C7.77469 51.1028 7.4351 51.3713 7.13335 51.6793L5.4176 53.5361L5.65264 53.7006C5.69894 53.7972 5.73063 53.9002 5.74665 54.0061Z" fill="#74D7EA"/>
<path d="M3.46707 55.5103L1.72781 57.32C1.43361 57.6481 1.181 58.0112 0.975701 58.4012L0.717163 58.8477L1.14023 58.5657C1.52031 58.3591 1.86215 58.0888 2.15087 57.7666L3.91363 55.9568C3.8029 55.9001 3.70016 55.829 3.60809 55.7453C3.55258 55.6724 3.50528 55.5935 3.46707 55.5103Z" fill="#74D7EA"/>
<path d="M1.72781 52.1259L3.46707 53.9356C3.50528 53.8523 3.55258 53.7735 3.60809 53.7006L3.89013 53.4891L2.15087 51.7968C1.84913 51.4888 1.50953 51.2203 1.14023 50.9977L0.717163 50.5981L0.975701 51.0447C1.17443 51.4386 1.42761 51.8026 1.72781 52.1259Z" fill="#74D7EA"/>
<path d="M7.5568 57.3203L5.74704 55.4165C5.74704 55.534 5.62952 55.6515 5.55901 55.7456C5.48609 55.8011 5.40727 55.8484 5.32397 55.8866L7.13374 57.7903C7.44127 58.085 7.78018 58.3451 8.14439 58.566L8.56745 58.848L8.30891 58.4014C8.09789 58.015 7.84572 57.6525 7.5568 57.3203Z" fill="#74D7EA"/>
<path d="M14.2314 54.0061L16.0411 52.1259C16.3354 51.7978 16.588 51.4347 16.7933 51.0447L17.1693 50.5981L16.7463 50.8802C16.3769 51.1028 16.0374 51.3713 15.7356 51.6793L13.9493 53.5361L14.1609 53.7006C14.1991 53.7985 14.2229 53.9014 14.2314 54.0061Z" fill="#74D7EA"/>
<path d="M11.9519 55.5107L10.1187 57.3205C9.82446 57.6486 9.57185 58.0117 9.36655 58.4017L9.20203 58.8482L9.62509 58.5662C10.0052 58.3595 10.347 58.0893 10.6357 57.7671L12.469 55.9573C12.3583 55.9006 12.2555 55.8295 12.1635 55.7458C12.0833 55.6767 12.0122 55.5978 11.9519 55.5107Z" fill="#74D7EA"/>
<path d="M10.1187 52.126L11.8579 53.9358C11.8961 53.8525 11.9434 53.7737 11.9989 53.7008L12.469 53.4892L10.6357 51.797C10.334 51.489 9.9944 51.2204 9.62509 50.9979L9.20203 50.7158L9.46056 51.1624C9.63905 51.5097 9.86012 51.8334 10.1187 52.126Z" fill="#74D7EA"/>
<path d="M16.0415 57.3203L14.2318 55.4165C14.2318 55.534 14.2318 55.6515 14.0438 55.7456C13.9708 55.8011 13.892 55.8484 13.8087 55.8866L15.6185 57.7903C15.926 58.085 16.2649 58.3451 16.6291 58.566L17.1697 58.848L16.9112 58.4014C16.6633 58.0092 16.3715 57.6465 16.0415 57.3203Z" fill="#74D7EA"/>
<path d="M22.7167 54.0061L24.5264 52.1259C24.8206 51.7978 25.0733 51.4347 25.2786 51.0447L25.5371 50.5981L25.114 50.8802C24.779 51.147 24.4789 51.455 24.2209 51.7968L22.4111 53.6536L22.6462 53.8181C22.6755 53.8785 22.6991 53.9414 22.7167 54.0061Z" fill="#74D7EA"/>
<path d="M20.4367 55.5107L18.6974 57.3205C18.4032 57.6486 18.1506 58.0117 17.9453 58.4017L17.6868 58.8482L18.1098 58.5662C18.4899 58.3595 18.8318 58.0893 19.1205 57.7671L20.8832 55.9573C20.7725 55.9006 20.6698 55.8295 20.5777 55.7458C20.5222 55.6729 20.4749 55.594 20.4367 55.5107Z" fill="#74D7EA"/>
<path d="M18.6974 52.126L20.4367 53.9358C20.4749 53.8525 20.5222 53.7737 20.5777 53.7008L20.8597 53.4892L19.1205 51.797C18.8187 51.489 18.4791 51.2204 18.1098 50.9979L17.6868 50.7158L17.9453 51.1624C18.153 51.515 18.4058 51.8389 18.6974 52.126Z" fill="#74D7EA"/>
<path d="M24.5264 57.3203L22.7166 55.4165C22.7166 55.534 22.7166 55.6515 22.5286 55.7456C22.4557 55.8011 22.3769 55.8484 22.2936 55.8866L24.1033 57.7903C24.4109 58.085 24.7498 58.3451 25.114 58.566L25.5371 58.848L25.2785 58.4014C25.0675 58.015 24.8153 57.6525 24.5264 57.3203Z" fill="#74D7EA"/>
<path d="M31.2712 54.0061L33.081 52.1259C33.3752 51.7978 33.6278 51.4347 33.8331 51.0447L34.0916 50.5981L33.6686 50.8802C33.2993 51.1028 32.9597 51.3713 32.6579 51.6793L30.8481 53.5361L31.0832 53.7006C31.1624 53.7913 31.226 53.8945 31.2712 54.0061Z" fill="#74D7EA"/>
<path d="M28.9215 55.5107L27.1823 57.3205C26.8881 57.6486 26.6355 58.0117 26.4302 58.4017L26.1716 58.8482L26.5947 58.5662C26.9748 58.3595 27.3166 58.0893 27.6053 57.7671L29.3681 55.9573C29.2574 55.9006 29.1546 55.8295 29.0626 55.7458C29.007 55.6729 28.9598 55.594 28.9215 55.5107Z" fill="#74D7EA"/>
<path d="M27.1823 52.126L28.9215 53.9358C28.9598 53.8525 29.007 53.7737 29.0626 53.7008L29.3446 53.4892L27.6053 51.797C27.3036 51.489 26.964 51.2204 26.5947 50.9979L26.1716 50.7158L26.4302 51.1624C26.6379 51.515 26.8907 51.8389 27.1823 52.126Z" fill="#74D7EA"/>
<path d="M33.0105 57.3203L31.2712 55.4165C31.2712 55.534 31.1537 55.6515 31.0832 55.7456C31.0103 55.8011 30.9314 55.8484 30.8481 55.8866L32.6579 57.7903C32.9654 58.085 33.3044 58.3451 33.6686 58.566L34.0916 58.848L33.8331 58.4014C33.5999 58.0116 33.324 57.649 33.0105 57.3203Z" fill="#74D7EA"/>
<path d="M39.6862 54.0061L41.496 52.1259C41.7902 51.7978 42.0428 51.4347 42.2481 51.0447L42.5067 50.5981L42.0836 50.8802C41.7143 51.1028 41.3747 51.3713 41.073 51.6793L39.2632 53.5361L39.4982 53.7006C39.5775 53.7913 39.641 53.8945 39.6862 54.0061Z" fill="#74D7EA"/>
<path d="M37.4063 55.5107L35.667 57.3205C35.3728 57.6486 35.1202 58.0117 34.9149 58.4017L34.6564 58.8482L35.0794 58.5662C35.4595 58.3595 35.8014 58.0893 36.0901 57.7671L37.8528 55.9573C37.7421 55.9006 37.6394 55.8295 37.5473 55.7458C37.4918 55.6729 37.4445 55.594 37.4063 55.5107Z" fill="#74D7EA"/>
<path d="M35.667 52.126L37.4063 53.9358C37.4445 53.8525 37.4918 53.7737 37.5473 53.7008L37.8293 53.4892L36.0901 51.797C35.7883 51.489 35.4487 51.2204 35.0794 50.9979L34.6564 50.7158L34.9149 51.1624C35.1226 51.515 35.3754 51.8389 35.667 52.126Z" fill="#74D7EA"/>
<path d="M41.496 57.3203L39.6862 55.4165C39.6862 55.534 39.6862 55.6515 39.4982 55.7456C39.4253 55.8011 39.3465 55.8484 39.2632 55.8866L41.073 57.7903C41.3805 58.085 41.7194 58.3451 42.0836 58.566L42.5067 58.848L42.2481 58.4014C42.0371 58.015 41.7849 57.6525 41.496 57.3203Z" fill="#74D7EA"/>
<path d="M48.171 54.0061L49.9808 52.1259C50.275 51.7978 50.5276 51.4347 50.7329 51.0447L50.9914 50.5981L50.5683 50.8802C50.199 51.1028 49.8594 51.3713 49.5577 51.6793L47.7479 53.5361L47.983 53.7006C48.0622 53.7913 48.1258 53.8945 48.171 54.0061Z" fill="#74D7EA"/>
<path d="M45.8911 55.5107L44.1519 57.3205C43.8577 57.6486 43.6051 58.0117 43.3998 58.4017L43.1412 58.8482L43.5643 58.5662C43.9444 58.3595 44.2862 58.0893 44.5749 57.7671L46.3377 55.9573C46.227 55.9006 46.1242 55.8295 46.0322 55.7458C45.9767 55.6729 45.9294 55.594 45.8911 55.5107Z" fill="#74D7EA"/>
<path d="M44.1519 52.126C44.6455 52.6431 45.2565 53.2542 45.8676 53.9358C45.8676 53.9358 45.8676 53.7713 46.0322 53.7008L46.3142 53.4892L44.5749 51.797C44.2732 51.489 43.9336 51.2204 43.5643 50.9979L43.1412 50.7158L43.3998 51.1624C43.6075 51.515 43.8603 51.8389 44.1519 52.126Z" fill="#74D7EA"/>
<path d="M50.0745 57.3203L48.2647 55.4165C48.2647 55.534 48.1472 55.6515 48.0767 55.7456C48.0038 55.8011 47.925 55.8484 47.8417 55.8866L49.6514 57.7903C49.959 58.085 50.2979 58.3451 50.6621 58.566L51.0852 58.848L50.8266 58.4014C50.6156 58.015 50.3634 57.6525 50.0745 57.3203Z" fill="#74D7EA"/>
<path d="M56.6558 54.0061L58.4656 52.1259C58.7598 51.7978 59.0124 51.4347 59.2177 51.0447L59.4763 50.5981L59.0532 50.8802C58.6798 51.1073 58.333 51.3753 58.019 51.6793L56.2328 53.5361L56.4678 53.7006L56.6558 54.0061Z" fill="#74D7EA"/>
<path d="M54.3759 55.5107L52.6366 57.3205C52.3424 57.6486 52.0898 58.0117 51.8845 58.4017L51.626 58.8482L52.049 58.5662C52.4291 58.3595 52.771 58.0893 53.0597 57.7671L54.8224 55.9573C54.7117 55.9006 54.609 55.8295 54.5169 55.7458C54.4614 55.6729 54.4141 55.594 54.3759 55.5107Z" fill="#74D7EA"/>
<path d="M52.6366 52.126L54.3759 53.9358C54.4141 53.8525 54.4614 53.7737 54.5169 53.7008C54.6051 53.6228 54.6994 53.5521 54.7989 53.4892L53.0597 51.797C52.7579 51.489 52.4183 51.2204 52.049 50.9979L51.626 50.7158L51.8845 51.1624C52.0922 51.515 52.345 51.8389 52.6366 52.126Z" fill="#74D7EA"/>
<path d="M58.4656 57.3203L56.6558 55.4165C56.6558 55.534 56.5383 55.6515 56.4678 55.7456C56.3949 55.8011 56.3161 55.8484 56.2328 55.8866L58.0425 57.7903C58.3501 58.085 58.689 58.3451 59.0532 58.566L59.4763 58.848L59.2177 58.4014C59.0067 58.015 58.7545 57.6525 58.4656 57.3203Z" fill="#74D7EA"/>
</g>
<defs>
<clipPath id="clip0_1_605">
<rect width="58.7586" height="58.7586" fill="white" transform="translate(0.717163 0.0893555)"/>
</clipPath>
</defs>
</svg>
