<svg width="395" height="82" viewBox="0 0 395 82" fill="none" xmlns="http://www.w3.org/2000/svg">
<g clip-path="url(#clip0_1_520)">
<path d="M130.8 44.7999C129 43.1999 127 42.0999 125 41.2999C123 40.4999 120.8 40.0999 118.6 40.0999C114.2 40.0999 110.7 41.4999 108 44.2999C105.3 47.0999 103.9 50.6999 103.9 55.1999C103.9 59.4999 105.2 63.0999 107.9 65.8999C110.6 68.6999 113.9 70.0999 118 70.0999C120.4 70.0999 122.6 69.6999 124.7 68.7999C126.8 67.9999 128.9 66.6999 130.8 64.9999V72.2999C129.1 73.5999 127.2 74.4999 125.1 75.0999C123 75.6999 120.8 75.9999 118.4 75.9999C115.4 75.9999 112.5 75.4999 109.9 74.4999C107.3 73.4999 105 71.9999 103.1 70.0999C101.2 68.1999 99.7 65.8999 98.6 63.2999C97.5 60.6999 97 57.8999 97 54.9999C97 52.0999 97.5 49.2999 98.6 46.6999C99.7 44.0999 101.2 41.8999 103.1 39.8999C105.1 37.8999 107.3 36.3999 109.9 35.3999C112.5 34.3999 115.2 33.8999 118.2 33.8999C120.5 33.8999 122.8 34.1999 124.9 34.8999C127 35.5999 129.1 36.5999 131.1 37.9999L130.8 44.7999Z" fill="#00245D"/>
<path d="M145.6 75.1V35H152.1V49.8H171.7V35H178.2V75H171.7V55.6H152V75L145.6 75.1Z" fill="#00245D"/>
<path d="M220.3 75.1L215.8 64.8H200L195.4 75.1H188.6L207.9 33.5L227.2 75.1H220.3ZM202.4 59.3H213.5L209.4 50.2C209.2 49.6 208.9 48.9 208.7 48.2C208.5 47.4 208.2 46.6 207.9 45.7C207.7 46.6 207.5 47.4 207.2 48.1C207 48.9 206.7 49.5 206.5 50.2L202.4 59.3Z" fill="#00245D"/>
<path d="M270.1 55.2998C270 54.9998 269.9 54.0998 269.7 52.6998C269.6 51.4998 269.4 50.5998 269.3 49.7998C269.1 50.6998 268.9 51.5998 268.6 52.4998C268.3 53.3998 267.9 54.2998 267.5 55.2998L257.1 76.5998L246.7 54.7998C246.3 53.8998 245.9 52.9998 245.6 52.1998C245.3 51.3998 245 50.4998 244.8 49.6998C244.8 50.4998 244.7 51.3998 244.6 52.2998C244.5 53.1998 244.3 54.1998 244.1 55.1998L239.7 74.9998H233.7L243.1 33.2998L254.9 58.5998C255.1 58.9998 255.4 59.6998 255.7 60.5998C256.1 61.4998 256.5 62.6998 257 63.9998C257.4 62.7998 258 61.3998 258.8 59.5998C259 59.0998 259.2 58.7998 259.3 58.4998L270.8 33.2998L280.4 74.9998H274.4L270.1 55.2998Z" fill="#00245D"/>
<path d="M292.4 75.1V35H302.5C305.4 35 307.5 35.2 308.9 35.5C310.3 35.8 311.4 36.3 312.4 37C313.6 37.9 314.6 39.1 315.3 40.6C316 42.1 316.3 43.7 316.3 45.5C316.3 47.6 315.8 49.4 314.8 50.8C313.8 52.2 312.4 53.2 310.5 53.8C312.8 54.2 314.7 55.2 316 57C317.3 58.8 318 61 318 63.7C318 65.3 317.7 66.9 317.2 68.3C316.6 69.8 315.8 71 314.8 72C313.7 73.1 312.4 73.9 310.7 74.3C309.1 74.7 306.4 75 302.6 75L292.4 75.1ZM298.7 51.9H301.2C304.3 51.9 306.5 51.5 307.7 50.6C309 49.8 309.6 48.3 309.6 46.3C309.6 44.1 309 42.6 307.8 41.7C306.6 40.8 304.4 40.4 301.1 40.4H298.6V51.9H298.7ZM298.7 69.6H300.9C303.2 69.6 304.9 69.5 306 69.3C307.1 69.1 308 68.8 308.7 68.3C309.5 67.8 310.1 67.1 310.6 66.2C311 65.3 311.3 64.3 311.3 63.3C311.3 62 311 60.9 310.5 60C310 59.1 309.2 58.3 308.2 57.8C307.6 57.5 306.9 57.3 306.1 57.1C305.3 57 304.3 56.9 303 56.9H301H298.8L298.7 69.6Z" fill="#00245D"/>
<path d="M331.2 75.1V35H353.4V40.5H337.6V50.5H353.4V56.2H337.6V69.1H353.4V74.9H331.2V75.1Z" fill="#00245D"/>
<path d="M373.7 57.2V75.1H367.6V35H376.6C379.3 35 381.3 35.2 382.8 35.5C384.3 35.8 385.5 36.4 386.5 37.2C387.7 38.2 388.7 39.4 389.4 40.9C390.1 42.4 390.4 44.1 390.4 45.9C390.4 49.1 389.6 51.6 388.1 53.4C386.6 55.2 384.3 56.3 381.3 56.7L395 75.1H387.7L374.4 57.2H373.7ZM374.1 52.1H375.3C378.7 52.1 381 51.7 382.1 50.9C383.2 50.1 383.8 48.7 383.8 46.6C383.8 44.4 383.2 42.8 382 41.9C380.8 41 378.6 40.6 375.3 40.6H374.1V52.1Z" fill="#00245D"/>
<path d="M110.8 10.4003C110.3 9.90029 109.7 9.60029 109.2 9.30029C108.6 9.10029 107.9 8.90029 107.2 8.90029C106.5 8.90029 105.8 9.00029 105.2 9.30029C104.6 9.60029 104 9.90029 103.6 10.4003C103.1 10.9003 102.7 11.5003 102.4 12.2003C102.1 12.9003 102 13.6003 102 14.4003C102 15.2003 102.1 15.9003 102.4 16.6003C102.7 17.3003 103 17.9003 103.6 18.4003C104.1 18.9003 104.6 19.2003 105.2 19.5003C105.8 19.7003 106.5 19.9003 107.2 19.9003C108 19.9003 108.7 19.8003 109.3 19.5003C109.9 19.2003 110.5 18.9003 110.9 18.3003L112.1 19.6003C111.5 20.2003 110.7 20.7003 109.9 21.0003C109.1 21.3003 108.2 21.5003 107.2 21.5003C106.2 21.5003 105.3 21.3003 104.5 21.0003C103.7 20.7003 102.9 20.2003 102.3 19.6003C101.6 18.9003 101.1 18.1003 100.7 17.3003C100.3 16.5003 100.2 15.5003 100.2 14.4003C100.2 13.3003 100.4 12.4003 100.7 11.5003C101.1 10.6003 101.6 9.80029 102.3 9.20029C102.9 8.60029 103.7 8.10029 104.5 7.80029C105.3 7.50029 106.2 7.30029 107.2 7.30029C108.2 7.30029 109 7.40029 109.8 7.70029C110.6 8.00029 111.3 8.40029 111.9 9.00029L110.8 10.4003Z" fill="#F15D22"/>
<path d="M120.7 21.2001V7.6001H122.5V13.4001H129.6V7.6001H131.4V21.2001H129.6V15.0001H122.5V21.2001H120.7Z" fill="#F15D22"/>
<path d="M139.4 21.2001L145 7.6001H146.5L152.2 21.2001H150.1L148.9 18.0001H142.5L141.3 21.2001H139.4ZM143.2 16.5001H148.3L146.2 11.0001C146.2 10.9001 146.1 10.8001 146 10.5001C145.9 10.2001 145.8 10.0001 145.7 9.7001C145.6 10.0001 145.5 10.3001 145.5 10.5001C145.4 10.7001 145.4 10.9001 145.3 11.0001L143.2 16.5001Z" fill="#F15D22"/>
<path d="M161.4 21.2001V9.2001H157.9V7.6001H166.6V9.2001H163.1V21.2001H161.4Z" fill="#F15D22"/>
<path d="M176.8 21.2001V9.2001H173.3V7.6001H182V9.2001H178.5V21.2001H176.8Z" fill="#F15D22"/>
<path d="M187.4 21.2001L193 7.6001H194.5L200.2 21.2001H198.1L196.9 18.0001H190.5L189.3 21.2001H187.4ZM191.2 16.5001H196.3L194.2 11.0001C194.2 10.9001 194.1 10.8001 194 10.5001C193.9 10.2001 193.8 10.0001 193.7 9.7001C193.6 10.0001 193.5 10.3001 193.5 10.5001C193.4 10.7001 193.4 10.9001 193.3 11.0001L191.2 16.5001Z" fill="#F15D22"/>
<path d="M208.3 21.2001V7.6001H210L216.6 17.0001C216.8 17.3001 217 17.5001 217.1 17.8001C217.3 18.1001 217.4 18.4001 217.6 18.8001C217.5 18.4001 217.4 18.0001 217.3 17.6001C217.2 17.2001 217.2 16.9001 217.2 16.6001V7.6001H218.9V21.2001H217.4L210.5 11.4001C210.2 11.0001 210.1 10.7001 209.9 10.5001C209.7 10.3001 209.7 10.0001 209.6 9.8001C209.7 10.3001 209.8 10.7001 209.8 11.1001C209.8 11.5001 209.9 11.9001 209.9 12.2001V21.2001H208.3Z" fill="#F15D22"/>
<path d="M234.7 21.5003C233.7 21.5003 232.8 21.3003 232 21.0003C231.2 20.7003 230.4 20.2003 229.8 19.6003C229.1 18.9003 228.6 18.1003 228.2 17.3003C227.8 16.4003 227.7 15.5003 227.7 14.4003C227.7 13.3003 227.9 12.4003 228.2 11.5003C228.6 10.6003 229.1 9.80029 229.8 9.20029C230.4 8.60029 231.2 8.10029 232 7.80029C232.8 7.50029 233.7 7.30029 234.7 7.30029C235.7 7.30029 236.6 7.50029 237.4 7.80029C238.2 8.10029 238.9 8.60029 239.6 9.20029C240.3 9.90029 240.8 10.7003 241.2 11.5003C241.6 12.4003 241.7 13.3003 241.7 14.4003C241.7 15.5003 241.5 16.4003 241.2 17.3003C240.8 18.2003 240.3 19.0003 239.6 19.6003C239 20.2003 238.2 20.7003 237.4 21.0003C236.6 21.3003 235.7 21.5003 234.7 21.5003ZM234.7 19.9003C235.5 19.9003 236.1 19.8003 236.7 19.5003C237.3 19.3003 237.9 18.9003 238.3 18.4003C238.8 17.9003 239.2 17.3003 239.5 16.6003C239.8 15.9003 239.9 15.2003 239.9 14.4003C239.9 13.6003 239.8 12.9003 239.5 12.2003C239.2 11.5003 238.8 10.9003 238.3 10.4003C237.8 9.90029 237.3 9.60029 236.7 9.30029C236.1 9.10029 235.4 8.90029 234.7 8.90029C234 8.90029 233.3 9.00029 232.7 9.30029C232.1 9.50029 231.5 9.90029 231.1 10.4003C230.6 10.9003 230.2 11.5003 229.9 12.2003C229.6 12.9003 229.5 13.6003 229.5 14.4003C229.5 15.2003 229.6 15.9003 229.9 16.6003C230.2 17.3003 230.6 17.9003 231.1 18.4003C231.6 18.9003 232.1 19.2003 232.7 19.5003C233.3 19.8003 234 19.9003 234.7 19.9003Z" fill="#F15D22"/>
<path d="M257 21.5003C256 21.5003 255.1 21.3003 254.3 21.0003C253.5 20.7003 252.7 20.2003 252.1 19.6003C251.4 18.9003 250.9 18.1003 250.5 17.3003C250.1 16.4003 250 15.5003 250 14.4003C250 13.3003 250.2 12.4003 250.5 11.5003C250.9 10.6003 251.4 9.80029 252.1 9.20029C252.7 8.60029 253.5 8.10029 254.3 7.80029C255.1 7.50029 256 7.30029 257 7.30029C258 7.30029 258.9 7.50029 259.7 7.80029C260.5 8.10029 261.2 8.60029 261.9 9.20029C262.6 9.90029 263.1 10.7003 263.5 11.5003C263.9 12.4003 264 13.3003 264 14.4003C264 15.5003 263.8 16.4003 263.5 17.3003C263.1 18.2003 262.6 19.0003 261.9 19.6003C261.3 20.2003 260.5 20.7003 259.7 21.0003C258.9 21.3003 258 21.5003 257 21.5003ZM257 19.9003C257.8 19.9003 258.4 19.8003 259 19.5003C259.6 19.3003 260.2 18.9003 260.6 18.4003C261.1 17.9003 261.5 17.3003 261.8 16.6003C262.1 15.9003 262.2 15.2003 262.2 14.4003C262.2 13.6003 262.1 12.9003 261.8 12.2003C261.5 11.5003 261.1 10.9003 260.6 10.4003C260.1 9.90029 259.6 9.60029 259 9.30029C258.4 9.10029 257.7 8.90029 257 8.90029C256.3 8.90029 255.6 9.00029 255 9.30029C254.4 9.50029 253.8 9.90029 253.4 10.4003C252.9 10.9003 252.5 11.5003 252.2 12.2003C251.9 12.9003 251.8 13.6003 251.8 14.4003C251.8 15.2003 251.9 15.9003 252.2 16.6003C252.5 17.3003 252.9 17.9003 253.4 18.4003C253.9 18.9003 254.4 19.2003 255 19.5003C255.6 19.8003 256.3 19.9003 257 19.9003Z" fill="#F15D22"/>
<path d="M282.9 10.4002C282.4 9.9002 281.9 9.5002 281.3 9.3002C280.7 9.1002 280 8.9002 279.3 8.9002C278.6 8.9002 277.9 9.0002 277.3 9.3002C276.7 9.5002 276.2 9.9002 275.7 10.4002C275.2 10.9002 274.8 11.5002 274.5 12.2002C274.2 12.9002 274.1 13.6002 274.1 14.4002C274.1 15.2002 274.2 15.9002 274.5 16.6002C274.8 17.3002 275.1 17.9002 275.7 18.4002C276.2 18.9002 276.7 19.2002 277.3 19.5002C277.9 19.7002 278.6 19.9002 279.3 19.9002C280.7 19.9002 281.9 19.5002 282.8 18.7002C283.7 17.9002 284.3 16.7002 284.5 15.3002H279.6V13.7002H286.3V14.0002C286.3 14.8002 286.2 15.5002 286.1 16.2002C286 16.9002 285.7 17.5002 285.4 18.0002C284.8 19.1002 283.9 20.0002 282.9 20.5002C281.9 21.1002 280.7 21.4002 279.3 21.4002C278.3 21.4002 277.4 21.2002 276.6 20.9002C275.8 20.6002 275 20.1002 274.4 19.5002C273.7 18.8002 273.2 18.0002 272.8 17.2002C272.4 16.3002 272.3 15.4002 272.3 14.3002C272.3 13.2002 272.5 12.3002 272.8 11.4002C273.2 10.5002 273.7 9.7002 274.4 9.1002C275 8.5002 275.8 8.0002 276.6 7.7002C277.4 7.4002 278.3 7.2002 279.3 7.2002C280.3 7.2002 281.2 7.4002 282 7.7002C282.8 8.0002 283.5 8.5002 284.2 9.1002L282.9 10.4002Z" fill="#F15D22"/>
<path d="M293.6 21.2001L299.2 7.6001H300.7L306.4 21.2001H304.3L303.1 18.0001H296.7L295.5 21.2001H293.6ZM297.3 16.5001H302.4L300.3 11.0001C300.3 10.9001 300.2 10.8001 300.1 10.5001C300 10.2001 299.9 10.0001 299.8 9.7001C299.7 10.0001 299.6 10.3001 299.6 10.5001C299.5 10.7001 299.5 10.9001 299.4 11.0001L297.3 16.5001Z" fill="#F15D22"/>
<path d="M324.4 21.2001L330 7.6001H331.5L337.2 21.2001H335.1L333.9 18.0001H327.5L326.3 21.2001H324.4ZM328.1 16.5001H333.2L331.1 11.0001C331.1 10.9001 331 10.8001 330.9 10.5001C330.8 10.2001 330.7 10.0001 330.6 9.7001C330.5 10.0001 330.4 10.3001 330.4 10.5001C330.3 10.7001 330.3 10.9001 330.2 11.0001L328.1 16.5001Z" fill="#F15D22"/>
<path d="M345.2 21.2001V7.6001H348.3C349.9 7.6001 351.2 8.0001 352.1 8.7001C353 9.4001 353.4 10.4001 353.4 11.7001C353.4 12.9001 353 13.9001 352.3 14.7001C351.6 15.5001 350.5 15.9001 349.3 15.9001H349.2L354 21.2001H351.8L346.9 15.7001V21.2001H345.2ZM347 14.6001H348.3C349.4 14.6001 350.2 14.4001 350.8 13.9001C351.4 13.4001 351.7 12.7001 351.7 11.8001C351.7 10.9001 351.4 10.3001 350.8 9.9001C350.2 9.5001 349.3 9.2001 348.2 9.2001H347V14.6001Z" fill="#F15D22"/>
<path d="M362.6 21.2001V7.6001H369.7V9.2001H364.4V13.5001H369.7V15.0001H364.4V19.6001H369.7V21.2001H362.6Z" fill="#F15D22"/>
<path d="M377.7 21.2001L383.3 7.6001H384.8L390.5 21.2001H388.4L387.2 18.0001H380.8L379.6 21.2001H377.7ZM381.4 16.5001H386.5L384.4 11.0001C384.4 10.9001 384.3 10.8001 384.2 10.5001C384.1 10.2001 384 10.0001 383.9 9.7001C383.8 10.0001 383.7 10.3001 383.7 10.5001C383.6 10.7001 383.6 10.9001 383.5 11.0001L381.4 16.5001Z" fill="#F15D22"/>
<path d="M44.2 53.2002C38 56.4002 30.8 54.7002 28 49.5002C25.3 44.2002 28.1 37.3002 34.3 34.2002L58.6 21.7002L68.5 40.8002L44.2 53.2002Z" fill="#F15D22"/>
<path d="M63.8 31.6002L47.3 -0.299805L80.4 23.0002L80.2 63.4002L63.8 31.6002Z" fill="#F15D22"/>
<path d="M38.5 82.5001C24.8 82.5001 11.5 75.0001 4.79998 62.0001C0.199984 53.0001 -0.700016 42.8001 2.39998 33.2001C5.49998 23.6001 12.1 15.7001 21.1 11.1001L36.7 3.1001L43.1 15.5001L27.5 23.5001C21.8 26.4001 17.7 31.4001 15.7 37.4001C13.8 43.5001 14.3 49.9001 17.2 55.6001C23.2 67.3001 37.6 71.9001 49.3 65.9001L65.2 57.7001L71.6 70.1001L55.7 78.3001C50.3 81.1001 44.4 82.5001 38.5 82.5001Z" fill="#00245D"/>
</g>
<defs>
<clipPath id="clip0_1_520">
<rect width="395" height="82" fill="white"/>
</clipPath>
</defs>
</svg>
