<svg width="202" height="48" viewBox="0 0 202 48" fill="none" xmlns="http://www.w3.org/2000/svg">
<g clip-path="url(#clip0_1_558)" filter="url(#filter0_d_1_558)">
<path d="M68.241 21.8537C67.357 21.0732 66.3747 20.5366 65.3924 20.1464C64.4101 19.7561 63.3296 19.561 62.2491 19.561C60.0881 19.561 58.3691 20.2439 57.043 21.6098C55.717 22.9756 55.0294 24.7317 55.0294 26.9269C55.0294 29.0244 55.6678 30.7805 56.9939 32.1464C58.32 33.5122 59.9408 34.1952 61.9544 34.1952C63.1332 34.1952 64.2137 34 65.2451 33.561C66.2765 33.1708 67.3078 32.5366 68.241 31.7074V35.2683C67.4061 35.9025 66.4729 36.3415 65.4415 36.6342C64.4101 36.9269 63.3296 37.0732 62.1509 37.0732C60.6775 37.0732 59.2532 36.8293 57.9762 36.3415C56.6992 35.8537 55.5696 35.122 54.6365 34.1952C53.7033 33.2683 52.9666 32.1464 52.4263 30.8781C51.8861 29.6098 51.6405 28.2439 51.6405 26.8293C51.6405 25.4147 51.8861 24.0488 52.4263 22.7805C52.9666 21.5122 53.7033 20.4391 54.6365 19.4635C55.6187 18.4878 56.6992 17.7561 57.9762 17.2683C59.2532 16.7805 60.5792 16.5366 62.0527 16.5366C63.1823 16.5366 64.3119 16.683 65.3433 17.0244C66.3747 17.3659 67.4061 17.8537 68.3884 18.5366L68.241 21.8537Z" fill="#00245D"/>
<path d="M75.5099 36.6342V17.0732H78.7023V24.2928H88.3286V17.0732H91.521V36.5854H88.3286V27.122H78.6532V36.5854L75.5099 36.6342Z" fill="#00245D"/>
<path d="M112.198 36.6345L109.988 31.6101H102.228L99.9686 36.6345H96.6289L106.108 16.3418L115.587 36.6345H112.198ZM103.407 28.9272H108.858L106.845 24.4881C106.746 24.1955 106.599 23.854 106.501 23.5125C106.403 23.1223 106.255 22.732 106.108 22.293C106.01 22.732 105.911 23.1223 105.764 23.4637C105.666 23.854 105.519 24.1467 105.42 24.4881L103.407 28.9272Z" fill="#00245D"/>
<path d="M136.657 26.9758C136.608 26.8295 136.559 26.3905 136.46 25.7076C136.411 25.1222 136.313 24.6832 136.264 24.2929C136.166 24.7319 136.067 25.171 135.92 25.61C135.773 26.049 135.576 26.488 135.38 26.9758L130.272 37.3661L125.164 26.7319C124.968 26.2929 124.771 25.8539 124.624 25.4637C124.477 25.0734 124.329 24.6344 124.231 24.2441C124.231 24.6344 124.182 25.0734 124.133 25.5124C124.084 25.9515 123.985 26.4393 123.887 26.9271L121.726 36.5856H118.779L123.396 16.2441L129.191 28.5856C129.29 28.7807 129.437 29.1222 129.584 29.5612C129.781 30.0002 129.977 30.5856 130.223 31.2198C130.419 30.6344 130.714 29.9515 131.107 29.0734C131.205 28.8295 131.303 28.6832 131.352 28.5368L137.001 16.2441L141.715 36.5856H138.769L136.657 26.9758Z" fill="#00245D"/>
<path d="M147.609 36.6342V17.0732H152.57C153.994 17.0732 155.025 17.1708 155.713 17.3171C156.401 17.4635 156.941 17.7074 157.432 18.0489C158.021 18.4879 158.512 19.0732 158.856 19.8049C159.2 20.5367 159.347 21.3171 159.347 22.1952C159.347 23.2196 159.102 24.0976 158.611 24.7806C158.12 25.4635 157.432 25.9513 156.499 26.244C157.628 26.4391 158.562 26.9269 159.2 27.8049C159.839 28.683 160.182 29.7562 160.182 31.0732C160.182 31.8537 160.035 32.6342 159.789 33.3171C159.495 34.0489 159.102 34.6342 158.611 35.122C158.07 35.6586 157.432 36.0489 156.597 36.244C155.811 36.4391 154.485 36.5854 152.619 36.5854L147.609 36.6342ZM150.703 25.3171H151.931C153.454 25.3171 154.534 25.122 155.124 24.683C155.762 24.2928 156.057 23.561 156.057 22.5854C156.057 21.5123 155.762 20.7806 155.173 20.3415C154.583 19.9025 153.503 19.7074 151.882 19.7074H150.654V25.3171H150.703ZM150.703 33.9513H151.784C152.913 33.9513 153.748 33.9025 154.289 33.805C154.829 33.7074 155.271 33.561 155.615 33.3171C156.008 33.0732 156.302 32.7318 156.548 32.2928C156.744 31.8537 156.892 31.3659 156.892 30.8781C156.892 30.244 156.744 29.7074 156.499 29.2684C156.253 28.8293 155.86 28.4391 155.369 28.1952C155.074 28.0489 154.731 27.9513 154.338 27.8537C153.945 27.8049 153.454 27.7562 152.815 27.7562H151.833H150.752L150.703 33.9513Z" fill="#00245D"/>
<path d="M166.665 36.6342V17.0732H177.569V19.7562H169.809V24.6342H177.569V27.4147H169.809V33.7074H177.569V36.5367H166.665V36.6342Z" fill="#00245D"/>
<path d="M187.539 27.9025V36.6342H184.543V17.0732H188.963C190.289 17.0732 191.271 17.1708 192.008 17.3171C192.745 17.4635 193.334 17.7562 193.825 18.1464C194.415 18.6342 194.906 19.2196 195.25 19.9513C195.593 20.683 195.741 21.5123 195.741 22.3903C195.741 23.9513 195.348 25.1708 194.611 26.0489C193.874 26.9269 192.745 27.4635 191.271 27.6586L198 36.6342H194.415L187.882 27.9025H187.539ZM187.735 25.4147H188.324C189.994 25.4147 191.124 25.2196 191.664 24.8293C192.204 24.4391 192.499 23.7562 192.499 22.7318C192.499 21.6586 192.204 20.8781 191.615 20.4391C191.026 20.0001 189.945 19.8049 188.324 19.8049H187.735V25.4147Z" fill="#00245D"/>
<path d="M58.4182 5.07323C58.1727 4.82933 57.878 4.68299 57.6324 4.53664C57.3377 4.43908 56.9939 4.34152 56.6501 4.34152C56.3063 4.34152 55.9625 4.3903 55.6679 4.53664C55.3732 4.68299 55.0785 4.82933 54.882 5.07323C54.6365 5.31713 54.44 5.60982 54.2927 5.95128C54.1453 6.29274 54.0962 6.63421 54.0962 7.02445C54.0962 7.41469 54.1453 7.75616 54.2927 8.09762C54.44 8.43908 54.5873 8.73177 54.882 8.97567C55.1276 9.21957 55.3732 9.36591 55.6679 9.51225C55.9625 9.60982 56.3063 9.70738 56.6501 9.70738C57.043 9.70738 57.3868 9.6586 57.6815 9.51225C57.9762 9.36591 58.2709 9.21957 58.4674 8.92689L59.0567 9.56104C58.762 9.85372 58.3691 10.0976 57.9762 10.244C57.5833 10.3903 57.1413 10.4879 56.6501 10.4879C56.159 10.4879 55.717 10.3903 55.3241 10.244C54.9311 10.0976 54.5382 9.85372 54.2436 9.56104C53.8998 9.21957 53.6542 8.82933 53.4577 8.43908C53.2613 8.04884 53.2122 7.56103 53.2122 7.02445C53.2122 6.48786 53.3104 6.04884 53.4577 5.60982C53.6542 5.17079 53.8998 4.78055 54.2436 4.48786C54.5382 4.19518 54.9311 3.95128 55.3241 3.80494C55.717 3.6586 56.159 3.56104 56.6501 3.56104C57.1413 3.56104 57.5342 3.60982 57.9271 3.75616C58.32 3.9025 58.6638 4.09762 58.9585 4.3903L58.4182 5.07323Z" fill="#F15D22"/>
<path d="M63.2805 10.3417V3.70752H64.1646V6.53679H67.6517V3.70752H68.5357V10.3417H67.6517V7.31728H64.1646V10.3417H63.2805Z" fill="#F15D22"/>
<path d="M72.4648 10.3417L75.2152 3.70752H75.9519L78.7514 10.3417H77.72L77.1307 8.78069H73.9874L73.398 10.3417H72.4648ZM74.3312 8.04898H76.836L75.8046 5.36606C75.8046 5.31728 75.7555 5.2685 75.7064 5.12215C75.6573 4.97581 75.6081 4.87825 75.559 4.73191C75.5099 4.87825 75.4608 5.02459 75.4608 5.12215C75.4117 5.21971 75.4117 5.31728 75.3626 5.36606L74.3312 8.04898Z" fill="#F15D22"/>
<path d="M83.2699 10.3417V4.48801H81.5509V3.70752H85.8238V4.48801H84.1048V10.3417H83.2699Z" fill="#F15D22"/>
<path d="M90.8335 10.3417V4.48801H89.1145V3.70752H93.3874V4.48801H91.6684V10.3417H90.8335Z" fill="#F15D22"/>
<path d="M96.0396 10.3417L98.7899 3.70752H99.5266L102.326 10.3417H101.295L100.705 8.78069H97.5621L96.9727 10.3417H96.0396ZM97.9059 8.04898H100.411L99.3793 5.36606C99.3793 5.31728 99.3302 5.2685 99.2811 5.12215C99.232 4.97581 99.1828 4.87825 99.1337 4.73191C99.0846 4.87825 99.0355 5.02459 99.0355 5.12215C98.9864 5.21971 98.9864 5.31728 98.9373 5.36606L97.9059 8.04898Z" fill="#F15D22"/>
<path d="M106.304 10.3417V3.70752H107.139L110.381 8.29289C110.479 8.43923 110.577 8.53679 110.626 8.68313C110.725 8.82947 110.774 8.97581 110.872 9.17093C110.823 8.97581 110.774 8.78069 110.725 8.58557C110.675 8.39045 110.675 8.2441 110.675 8.09776V3.70752H111.51V10.3417H110.774L107.385 5.56118C107.237 5.36606 107.188 5.21971 107.09 5.12215C106.992 5.02459 106.992 4.87825 106.943 4.78069C106.992 5.02459 107.041 5.21971 107.041 5.41484C107.041 5.60996 107.09 5.80508 107.09 5.95142V10.3417H106.304Z" fill="#F15D22"/>
<path d="M119.27 10.4879C118.779 10.4879 118.337 10.3903 117.944 10.244C117.551 10.0976 117.158 9.85372 116.864 9.56104C116.52 9.21957 116.274 8.82933 116.078 8.43908C115.882 8.00006 115.832 7.56103 115.832 7.02445C115.832 6.48786 115.931 6.04884 116.078 5.60982C116.274 5.17079 116.52 4.78055 116.864 4.48786C117.158 4.19518 117.551 3.95128 117.944 3.80494C118.337 3.6586 118.779 3.56104 119.27 3.56104C119.762 3.56104 120.204 3.6586 120.596 3.80494C120.989 3.95128 121.333 4.19518 121.677 4.48786C122.021 4.82933 122.266 5.21957 122.463 5.60982C122.659 6.04884 122.708 6.48786 122.708 7.02445C122.708 7.56103 122.61 8.00006 122.463 8.43908C122.266 8.87811 122.021 9.26835 121.677 9.56104C121.382 9.85372 120.989 10.0976 120.596 10.244C120.204 10.3903 119.762 10.4879 119.27 10.4879ZM119.27 9.70738C119.663 9.70738 119.958 9.6586 120.253 9.51225C120.547 9.41469 120.842 9.21957 121.038 8.97567C121.284 8.73177 121.481 8.43908 121.628 8.09762C121.775 7.75616 121.824 7.41469 121.824 7.02445C121.824 6.63421 121.775 6.29274 121.628 5.95128C121.481 5.60982 121.284 5.31713 121.038 5.07323C120.793 4.82933 120.547 4.68299 120.253 4.53664C119.958 4.43908 119.614 4.34152 119.27 4.34152C118.927 4.34152 118.583 4.3903 118.288 4.53664C117.993 4.63421 117.699 4.82933 117.502 5.07323C117.257 5.31713 117.06 5.60982 116.913 5.95128C116.766 6.29274 116.716 6.63421 116.716 7.02445C116.716 7.41469 116.766 7.75616 116.913 8.09762C117.06 8.43908 117.257 8.73177 117.502 8.97567C117.748 9.21957 117.993 9.36591 118.288 9.51225C118.583 9.6586 118.927 9.70738 119.27 9.70738Z" fill="#F15D22"/>
<path d="M130.223 10.4879C129.732 10.4879 129.29 10.3903 128.897 10.244C128.504 10.0976 128.111 9.85372 127.816 9.56104C127.472 9.21957 127.227 8.82933 127.03 8.43908C126.834 8.00006 126.785 7.56103 126.785 7.02445C126.785 6.48786 126.883 6.04884 127.03 5.60982C127.227 5.17079 127.472 4.78055 127.816 4.48786C128.111 4.19518 128.504 3.95128 128.897 3.80494C129.29 3.6586 129.732 3.56104 130.223 3.56104C130.714 3.56104 131.156 3.6586 131.549 3.80494C131.942 3.95128 132.286 4.19518 132.629 4.48786C132.973 4.82933 133.219 5.21957 133.415 5.60982C133.612 6.04884 133.661 6.48786 133.661 7.02445C133.661 7.56103 133.563 8.00006 133.415 8.43908C133.219 8.87811 132.973 9.26835 132.629 9.56104C132.335 9.85372 131.942 10.0976 131.549 10.244C131.156 10.3903 130.714 10.4879 130.223 10.4879ZM130.223 9.70738C130.616 9.70738 130.91 9.6586 131.205 9.51225C131.5 9.41469 131.794 9.21957 131.991 8.97567C132.236 8.73177 132.433 8.43908 132.58 8.09762C132.728 7.75616 132.777 7.41469 132.777 7.02445C132.777 6.63421 132.728 6.29274 132.58 5.95128C132.433 5.60982 132.236 5.31713 131.991 5.07323C131.745 4.82933 131.5 4.68299 131.205 4.53664C130.91 4.43908 130.567 4.34152 130.223 4.34152C129.879 4.34152 129.535 4.3903 129.24 4.53664C128.946 4.63421 128.651 4.82933 128.455 5.07323C128.209 5.31713 128.013 5.60982 127.865 5.95128C127.718 6.29274 127.669 6.63421 127.669 7.02445C127.669 7.41469 127.718 7.75616 127.865 8.09762C128.013 8.43908 128.209 8.73177 128.455 8.97567C128.7 9.21957 128.946 9.36591 129.24 9.51225C129.535 9.6586 129.879 9.70738 130.223 9.70738Z" fill="#F15D22"/>
<path d="M142.943 5.07318C142.698 4.82928 142.452 4.63416 142.157 4.5366C141.863 4.43904 141.519 4.34148 141.175 4.34148C140.831 4.34148 140.488 4.39026 140.193 4.5366C139.898 4.63416 139.653 4.82928 139.407 5.07318C139.161 5.31709 138.965 5.60977 138.818 5.95123C138.67 6.29269 138.621 6.63416 138.621 7.0244C138.621 7.41465 138.67 7.75611 138.818 8.09757C138.965 8.43904 139.112 8.73172 139.407 8.97562C139.653 9.21952 139.898 9.36587 140.193 9.51221C140.488 9.60977 140.831 9.70733 141.175 9.70733C141.863 9.70733 142.452 9.51221 142.894 9.12196C143.336 8.73172 143.631 8.14635 143.729 7.46343H141.323V6.68294H144.613V6.82928C144.613 7.21952 144.564 7.56099 144.515 7.90245C144.466 8.24392 144.318 8.5366 144.171 8.7805C143.876 9.31709 143.434 9.75611 142.943 10C142.452 10.2927 141.863 10.439 141.175 10.439C140.684 10.439 140.242 10.3415 139.849 10.1951C139.456 10.0488 139.063 9.80489 138.769 9.51221C138.425 9.17074 138.179 8.7805 137.983 8.39026C137.786 7.95123 137.737 7.51221 137.737 6.97562C137.737 6.43904 137.835 6.00001 137.983 5.56099C138.179 5.12196 138.425 4.73172 138.769 4.43904C139.063 4.14635 139.456 3.90245 139.849 3.75611C140.242 3.60977 140.684 3.51221 141.175 3.51221C141.666 3.51221 142.108 3.60977 142.501 3.75611C142.894 3.90245 143.238 4.14635 143.582 4.43904L142.943 5.07318Z" fill="#F15D22"/>
<path d="M148.198 10.3417L150.949 3.70752H151.686L154.485 10.3417H153.454L152.864 8.78069H149.721L149.132 10.3417H148.198ZM150.016 8.04898H152.521L151.489 5.36606C151.489 5.31728 151.44 5.2685 151.391 5.12215C151.342 4.97581 151.293 4.87825 151.244 4.73191C151.194 4.87825 151.145 5.02459 151.145 5.12215C151.096 5.21971 151.096 5.31728 151.047 5.36606L150.016 8.04898Z" fill="#F15D22"/>
<path d="M163.326 10.3417L166.076 3.70752H166.813L169.612 10.3417H168.581L167.991 8.78069H164.848L164.259 10.3417H163.326ZM165.143 8.04898H167.648L166.616 5.36606C166.616 5.31728 166.567 5.2685 166.518 5.12215C166.469 4.97581 166.42 4.87825 166.371 4.73191C166.322 4.87825 166.272 5.02459 166.272 5.12215C166.223 5.21971 166.223 5.31728 166.174 5.36606L165.143 8.04898Z" fill="#F15D22"/>
<path d="M173.541 10.3417V3.70752H175.064C175.85 3.70752 176.488 3.90264 176.93 4.2441C177.372 4.58557 177.569 5.07337 177.569 5.70752C177.569 6.29289 177.372 6.78069 177.028 7.17093C176.685 7.56118 176.144 7.7563 175.555 7.7563H175.506L177.863 10.3417H176.783L174.376 7.65874V10.3417H173.541ZM174.425 7.12215H175.064C175.604 7.12215 175.997 7.02459 176.292 6.78069C176.586 6.53679 176.734 6.19532 176.734 5.7563C176.734 5.31728 176.586 5.02459 176.292 4.82947C175.997 4.63435 175.555 4.48801 175.015 4.48801H174.425V7.12215Z" fill="#F15D22"/>
<path d="M182.087 10.3417V3.70752H185.574V4.48801H182.971V6.58557H185.574V7.31728H182.971V9.56118H185.574V10.3417H182.087Z" fill="#F15D22"/>
<path d="M189.503 10.3417L192.254 3.70752H192.99L195.79 10.3417H194.758L194.169 8.78069H191.026L190.436 10.3417H189.503ZM191.321 8.04898H193.825L192.794 5.36606C192.794 5.31728 192.745 5.2685 192.696 5.12215C192.647 4.97581 192.597 4.87825 192.548 4.73191C192.499 4.87825 192.45 5.02459 192.45 5.12215C192.401 5.21971 192.401 5.31728 192.352 5.36606L191.321 8.04898Z" fill="#F15D22"/>
<path d="M25.7084 25.9513C22.6634 27.5123 19.1272 26.683 17.752 24.1464C16.4259 21.5611 17.8011 18.1952 20.8462 16.683L32.7808 10.5854L37.6431 19.9025L25.7084 25.9513Z" fill="#F15D22"/>
<path d="M35.3348 15.4145L27.231 -0.146484L43.4877 11.2194L43.3894 30.9267L35.3348 15.4145Z" fill="#F15D22"/>
<path d="M22.9089 40.2439C16.1803 40.2439 9.64814 36.5854 6.35751 30.2439C4.09827 25.8537 3.65624 20.8781 5.17877 16.1951C6.7013 11.5122 9.94282 7.65855 14.3631 5.41465L22.0248 1.51221L25.1681 7.56099L17.5064 11.4634C14.7069 12.8781 12.6932 15.3171 11.7109 18.2439C10.7778 21.2195 11.0233 24.3415 12.4476 27.122C15.3945 32.8293 22.4669 35.0732 28.2132 32.1464L36.0223 28.1464L39.1656 34.1951L31.3565 38.1951C28.7043 39.561 25.8066 40.2439 22.9089 40.2439Z" fill="#00245D"/>
</g>
<defs>
<filter id="filter0_d_1_558" x="0" y="0" width="202" height="48" filterUnits="userSpaceOnUse" color-interpolation-filters="sRGB">
<feFlood flood-opacity="0" result="BackgroundImageFix"/>
<feColorMatrix in="SourceAlpha" type="matrix" values="0 0 0 0 0 0 0 0 0 0 0 0 0 0 0 0 0 0 127 0" result="hardAlpha"/>
<feOffset dy="4"/>
<feGaussianBlur stdDeviation="2"/>
<feComposite in2="hardAlpha" operator="out"/>
<feColorMatrix type="matrix" values="0 0 0 0 0 0 0 0 0 0 0 0 0 0 0 0 0 0 0.25 0"/>
<feBlend mode="normal" in2="BackgroundImageFix" result="effect1_dropShadow_1_558"/>
<feBlend mode="normal" in="SourceGraphic" in2="effect1_dropShadow_1_558" result="shape"/>
</filter>
<clipPath id="clip0_1_558">
<rect width="194" height="40" fill="white" transform="translate(4)"/>
</clipPath>
</defs>
</svg>
